<?xml version="1.0" standalone="no"?>
<!DOCTYPE svg PUBLIC "-//W3C//DTD SVG 1.1//EN" "http://www.w3.org/Graphics/SVG/1.1/DTD/svg11.dtd" >
<svg xmlns="http://www.w3.org/2000/svg" xmlns:xlink="http://www.w3.org/1999/xlink" version="1.1">
<metadata></metadata>
<defs>
<font id="droidregular" horiz-adv-x="534" >
<font-face units-per-em="2048" ascent="1688" descent="-360" />
<missing-glyph horiz-adv-x="200" />
<glyph unicode="&#x28;C&#x29;" horiz-adv-x="1228" d="M45 877q0 279 45 455.5t122 277t181.5 138.5t220.5 38q117 0 221.5 -38t181.5 -138.5t122 -277.5t45 -455q0 -279 -45 -454t-122 -274.5t-181.5 -136.5t-221.5 -37t-221 37t-181 136.5t-122 274.5t-45 454zM143 874q0 -246 38 -401.5t102.5 -244.5t149.5 -121.5 t181 -32.5q98 0 184.5 32.5t151 121.5t102.5 245t38 401q0 246 -38 404t-102.5 247t-150.5 122.5t-185 33.5q-96 0 -181 -33.5t-149.5 -122.5t-102.5 -247t-38 -404zM467 383v987q0 147 143 148q143 0 144 -148v-375h-109v389q0 39 -35 39q-33 0 -32 -39v-1003q0 -43 32 -43 q35 0 35 43v434h109v-432q0 -143 -144 -143q-143 0 -143 143z" />
<glyph unicode="&#x28;R&#x29;" horiz-adv-x="1228" d="M45 877q0 279 45 455.5t122 277t181.5 138.5t220.5 38q117 0 221.5 -38t181.5 -138.5t122 -277.5t45 -455q0 -279 -45 -454t-122 -274.5t-181.5 -136.5t-221.5 -37t-221 37t-181 136.5t-122 274.5t-45 454zM143 874q0 -246 38 -401.5t102.5 -244.5t149.5 -121.5 t181 -32.5q98 0 184.5 32.5t151 121.5t102.5 245t38 401q0 246 -38 404t-102.5 247t-150.5 122.5t-185 33.5q-96 0 -181 -33.5t-149.5 -122.5t-102.5 -247t-38 -404zM469 240v1276h141q154 0 154 -142v-336q0 -113 -113 -133q59 -6 86 -31.5t27 -78.5v-414q0 -96 20 -141 h-120q-14 35 -15 145v424q0 49 -67 49v-618h-113zM582 954h24q43 0 43 52v370q0 51 -43 51h-24v-473z" />
<glyph horiz-adv-x="0" />
<glyph unicode="&#xd;" horiz-adv-x="301" />
<glyph horiz-adv-x="200" />
<glyph unicode=" "  horiz-adv-x="200" />
<glyph unicode="&#x09;" horiz-adv-x="200" />
<glyph unicode="&#xa0;" horiz-adv-x="200" />
<glyph unicode="!" horiz-adv-x="360" d="M102 0v172h154v-172h-154zM102 307v1452h154v-1452h-154z" />
<glyph unicode="&#x22;" horiz-adv-x="468" d="M63 1356v403h119v-403h-119zM287 1356v403h116v-403h-116z" />
<glyph unicode="#" horiz-adv-x="612" d="M20 567v121h103v350h-103v119h99v602h119v-602h141v602h119v-600h90v-121h-96v-350h96v-121h-101v-567h-110v567h-150v-567h-108v567h-99zM231 686h152v352h-152v-352z" />
<glyph unicode="$" horiz-adv-x="495" d="M55 395v258h160v-225q0 -39 45 -39q47 0 47 39v90q0 29 -5 57.5t-23 79.5l-173 441q-27 76 -39 124t-12 89v57q0 109 127 133v260h66v-254h31v254h65v-262q121 -25 121 -131v-236h-158v211q0 35 -47 35q-45 0 -45 -30v-68q0 -27 6 -55.5t29 -85.5l174 -463 q16 -49 28.5 -90t12.5 -92v-97q0 -109 -121 -133v-262h-65v256h-31v-256h-66v262q-127 23 -127 133z" />
<glyph unicode="%" horiz-adv-x="802" d="M41 1139v465q0 182 158 182q156 0 155 -182v-465q0 -182 -155 -183q-158 0 -158 183zM164 1100q0 -49 35 -49t34 49v540q0 47 -34 48q-35 0 -35 -46v-542zM180 0l385 1759h76l-385 -1759h-76zM446 160v372q0 184 158 185q154 0 154 -185v-372q0 -184 -154 -185 q-158 0 -158 185zM567 119q0 -47 35 -47q33 0 33 47v459q0 43 -33 43q-35 0 -35 -43v-459z" />
<glyph unicode="&#x26;" horiz-adv-x="604" d="M55 240v522q0 70 16.5 120t69.5 101q-55 94 -55 176v457q0 96 56.5 133t140.5 37q184 0 184 -170v-457q0 -102 -160 -219l99 -399v360h126v-690q0 -45 -16 -88h49v-123h-100q-31 0 -49 18q-20 -23 -48 -33t-75 -10q-119 0 -178.5 69t-59.5 196zM190 813l25 -575 q4 -80 18.5 -111t55.5 -31q20 0 35.5 5t31.5 22zM236 1157q0 -16 7 -48t13 -48q68 49 68 94v461q0 35 -10.5 48t-32.5 13q-45 0 -45 -61v-459z" />
<glyph unicode="'" horiz-adv-x="256" d="M63 1360v399h119v-399h-119z" />
<glyph unicode="(" horiz-adv-x="389" d="M90 840q0 57 4 147t12.5 196.5t19.5 219.5t25.5 214t33 183t38.5 127h131q-23 -47 -42 -130t-33.5 -185.5t-25.5 -216t-18.5 -219t-10.5 -194.5t-3 -142t3 -142.5t10.5 -196t18.5 -220t25.5 -216t34 -185.5t43.5 -126h-133q-23 43 -41 124t-33.5 183.5t-25.5 216 t-17.5 220t-11.5 196.5t-4 146z" />
<glyph unicode=")" horiz-adv-x="389" d="M33 -246q25 43 44 126t33.5 185.5t25.5 216t18.5 220t10.5 195.5t3 143q0 55 -3 143t-10.5 193.5t-18.5 219t-25.5 216t-34 185.5t-41.5 130h131q20 -45 38.5 -127t33 -183t25.5 -214t19.5 -219.5t12.5 -196.5t4 -147q0 -55 -4 -145.5t-11.5 -197t-17.5 -220t-25.5 -216 t-34 -183.5t-40.5 -124h-133z" />
<glyph unicode="*" horiz-adv-x="425" d="M12 1577l31 94l119 -37l-2 125h102l-2 -125l119 37l31 -94l-119 -39l67 -100l-79 -62l-70 103l-74 -105l-82 60l78 104z" />
<glyph unicode="+" horiz-adv-x="649" d="M37 764v121h221v229h123v-229h223v-121h-223v-234h-123v234h-221z" />
<glyph unicode="," horiz-adv-x="256" d="M41 -188l49 348h148l-107 -348h-90z" />
<glyph unicode="-" horiz-adv-x="319" d="M31 786v115h260v-115h-260z" />
<glyph unicode="." horiz-adv-x="276" d="M63 0v168h144v-168h-144z" />
<glyph unicode="/" horiz-adv-x="522" d="M6 0l406 1759h104l-410 -1759h-100z" />
<glyph unicode="0" d="M61 180v1403q0 203 205 203q207 0 207 -203v-1403q0 -205 -207 -205q-205 0 -205 205zM221 172q0 -63 45 -63q47 0 47 63v1427q0 59 -47 60q-45 0 -45 -60v-1427z" />
<glyph unicode="1" horiz-adv-x="354" d="M12 1503v117q109 0 146 139h129v-1759h-160v1503h-115z" />
<glyph unicode="2" horiz-adv-x="516" d="M51 0v76q0 14 4 35.5t11.5 56.5t19.5 89t31 134q29 131 64.5 270.5t66.5 281.5t51 283.5t20 280.5v88q0 59 -47 60q-45 0 -45 -60v-200h-157v186q0 102 47 153.5t162 51.5q106 0 152 -40t46 -157v-90q0 -129 -19.5 -269t-50 -285.5t-68.5 -293t-73 -293.5 q-12 -53 -24.5 -112.5t-20.5 -118.5h238v-127h-408z" />
<glyph unicode="3" horiz-adv-x="530" d="M61 180v506h160v-512q0 -66 45 -65q43 0 43 65v502q0 41 -21.5 59.5t-66.5 28.5v123q47 10 67.5 34.5t20.5 57.5v614q0 66 -43 66q-45 0 -45 -66v-577h-160v565q0 205 205 205q201 0 201 -205v-586q0 -152 -119 -166q70 -10 94.5 -40.5t24.5 -102.5v-506 q0 -102 -47 -153.5t-154 -51.5q-205 0 -205 205z" />
<glyph unicode="4" horiz-adv-x="575" d="M49 262v1497h137v-1366h127v1366h154v-1366h65v-131h-65v-262h-160v262h-258z" />
<glyph unicode="5" horiz-adv-x="516" d="M61 180v637h156v-643q0 -66 45 -65q47 0 47 65v723q0 61 -39 61q-20 0 -43 -34h-157v835h405v-129h-250v-592q59 57 127 58q115 0 115 -176v-746q0 -199 -205 -199q-201 0 -201 205z" />
<glyph unicode="6" d="M61 180v1401q0 205 205 205q207 0 207 -205v-524h-162v538q0 66 -45 66q-47 0 -47 -66v-686q55 49 119 49q59 0 97 -44t38 -109v-625q0 -205 -207 -205q-205 0 -205 205zM219 170q0 -61 47 -61q45 0 45 61v592q0 61 -45 61q-47 0 -47 -61v-592z" />
<glyph unicode="7" horiz-adv-x="481" d="M29 1628v131h430v-133l-232 -1626h-170l246 1628h-274z" />
<glyph unicode="8" d="M61 180v535q0 131 119 168q-66 23 -89 58.5t-23 107.5v532q0 205 198 205q203 0 203 -205v-528q0 -76 -29.5 -115t-95.5 -55q129 -25 129 -164v-539q0 -205 -207 -205q-205 0 -205 205zM221 170q0 -61 45 -61q47 0 47 65v571q0 63 -47 64q-45 0 -45 -61v-578zM221 1016 q0 -61 45 -62q47 0 47 62v581q0 61 -47 62q-45 0 -45 -62v-581z" />
<glyph unicode="9" d="M61 180v467h160v-473q0 -66 45 -65q47 0 47 65v598q-49 -49 -112 -49q-66 0 -103 44t-37 107v707q0 205 205 205q207 0 207 -205v-1401q0 -205 -207 -205q-205 0 -205 205zM221 924q0 -57 45 -58q47 0 47 60v663q0 61 -47 62q-45 0 -45 -62v-665z" />
<glyph unicode=":" horiz-adv-x="266" d="M61 258v170h144v-170h-144zM61 934v166h144v-166h-144z" />
<glyph unicode=";" horiz-adv-x="278" d="M37 70l49 352h150l-109 -352h-90zM80 934v166h141v-166h-141z" />
<glyph unicode="&#x3c;" horiz-adv-x="696" d="M31 762v115l624 260v-133l-448 -183l448 -186v-127z" />
<glyph unicode="=" horiz-adv-x="649" d="M37 643v119h567v-119h-567zM37 887v121h567v-121h-567z" />
<glyph unicode="&#x3e;" horiz-adv-x="696" d="M31 508v127l448 186l-448 183v133l624 -260v-115z" />
<glyph unicode="?" horiz-adv-x="411" d="M31 1192v428q0 166 176 166q53 0 87 -12.5t54.5 -35t27.5 -53t7 -67.5v-182q0 -111 -2 -183.5t-6 -126t-12.5 -95.5t-22.5 -91q-23 -74 -36 -127t-20.5 -93t-10.5 -73t-3 -63v-326h-139v326q0 45 3 83t10.5 77.5t18.5 87t27 108.5q16 63 25.5 107.5t15 94.5t6.5 119.5 t1 186.5v174q0 49 -31 49q-33 0 -33 -49v-430h-143zM131 0v172h139v-172h-139z" />
<glyph unicode="@" horiz-adv-x="663" d="M61 -68v1452q0 41 12.5 74t43 55.5t83 35t132.5 12.5t132 -12.5t83 -35t43 -54.5t12 -73v-1302h-113l-6 57q-18 -66 -102 -65q-78 0 -78 108v940q0 115 80 115q74 0 104 -53v200q0 29 -36.5 49.5t-122.5 20.5t-120 -20.5t-34 -49.5v-1454q0 -29 34 -51t120 -22 t122.5 22.5t36.5 48.5v62h115v-62q0 -41 -12 -74.5t-43 -57t-83 -36t-132 -12.5t-132.5 12.5t-83 36t-43 57t-12.5 76.5zM412 199q0 -37 37 -37q39 12 38 47v897q0 37 -38 37q-37 0 -37 -37v-907z" />
<glyph unicode="A" horiz-adv-x="528" d="M61 135v645q0 66 123 144q61 39 92 82t31 86v542q0 45 -51 45t-51 -45v-571h-144v557q0 166 195 166q203 0 203 -166v-1569q0 -14 1 -27.5t5 -23.5h-152q0 10 -1 27.5t-3 40.5q-39 -80 -108 -80q-59 0 -99.5 34.5t-40.5 112.5zM205 152q0 -47 51 -48q27 0 39 15.5 t12 38.5v743q-35 -23 -55.5 -37t-30.5 -26.5t-13 -24.5t-3 -29v-632z" />
<glyph unicode="B" horiz-adv-x="538" d="M63 0v1759h189q223 0 223 -192v-537q0 -133 -158 -160v-6q158 -18 158 -149v-522q0 -193 -223 -193h-189zM221 131h35q57 0 57 70v534q0 68 -57 68h-35v-672zM221 932h35q57 0 57 69v568q0 69 -55 69h-2h-35v-706z" />
<glyph unicode="C" horiz-adv-x="532" d="M61 180v1401q0 205 205 205q203 0 203 -205v-537h-158v549q0 63 -45 64q-45 0 -45 -64v-1419q0 -65 44 -65h1q45 0 45 65v612h158v-606q0 -205 -203 -205q-205 0 -205 205z" />
<glyph unicode="D" horiz-adv-x="538" d="M63 0v1759h189q223 0 223 -192v-1374q0 -193 -223 -193h-189zM221 131h35q57 0 57 70v1368q0 69 -55 69h-2h-35v-1507z" />
<glyph unicode="E" horiz-adv-x="542" d="M61 162v1450q0 84 52.5 129t156.5 45q98 0 153.5 -43t55.5 -115v-805h-258v-684q0 -43 51 -43q47 0 47 43v609h160v-609q0 -78 -56 -121t-151 -43q-211 0 -211 187zM221 932h98v694q0 45 -47 45q-51 0 -51 -45v-694z" />
<glyph unicode="F" horiz-adv-x="415" d="M63 0v1759h345v-143h-187v-649h187v-138h-187v-829h-158z" />
<glyph unicode="G" horiz-adv-x="540" d="M63 139v520h152v-524q0 -47 51 -47t51 47v672q-39 -72 -143 -72q-111 0 -111 156v731q0 150 109 150q115 0 141 -93l6 80h156v-1620q0 -45 -17.5 -75.5t-45 -50t-62.5 -29t-67 -9.5q-119 0 -169.5 41t-50.5 123zM215 915q0 -49 51 -49t51 49v674q0 47 -51 66 q-51 0 -51 -49v-691z" />
<glyph unicode="H" d="M63 0v1759h158v-825h90v825h158v-1759h-158v786h-90v-786h-158z" />
<glyph unicode="I" horiz-adv-x="292" d="M63 0v1759h158v-1759h-158z" />
<glyph unicode="J" horiz-adv-x="288" d="M12 0v119h19q49 0 49 47v1593h139v-1603q0 -86 -28.5 -121t-110.5 -35h-68z" />
<glyph unicode="K" horiz-adv-x="530" d="M63 0v1759h162v-827l121 827h164l-148 -841l144 -918h-168l-113 874v-874h-162z" />
<glyph unicode="L" horiz-adv-x="421" d="M63 0v1759h158v-1616h191v-143h-349z" />
<glyph unicode="M" horiz-adv-x="763" d="M63 0v1759h148v-65q27 78 133 78q86 0 111 -76q31 76 131 76q113 0 112 -146v-1626h-151v1604q0 49 -51 49q-41 0 -41 -49v-1604h-150v1604q0 49 -51 49q-39 0 -39 -49v-1604h-152z" />
<glyph unicode="N" horiz-adv-x="524" d="M63 0v1759h146v-65q39 78 137 78q111 0 111 -146v-1626h-150v1604q0 49 -51 49q-41 0 -41 -49v-1604h-152z" />
<glyph unicode="O" d="M61 180v1401q0 205 205 205q207 0 207 -205v-1401q0 -205 -207 -205q-205 0 -205 205zM221 170q0 -61 45 -61q47 0 47 63v1427q0 59 -47 60q-45 0 -45 -60v-1429z" />
<glyph unicode="P" horiz-adv-x="495" d="M63 0v1759h189q223 0 223 -192v-617q0 -106 -55 -151t-199 -45v-754h-158zM221 881h35q57 0 57 69v617q0 69 -55 69h-2h-35v-755z" />
<glyph unicode="Q" horiz-adv-x="530" d="M57 180v1401q0 205 205 205q207 0 207 -205v-1401q0 -68 -19.5 -109.5t-60.5 -66.5h90v-125h-90q-41 0 -60.5 23.5t-19.5 77.5q-29 -4 -42 -4.5t-17 -0.5q-193 0 -193 205zM219 170q0 -61 43 -61q49 0 49 63v1425q0 59 -49 60q-43 0 -43 -60v-1427z" />
<glyph unicode="R" d="M63 0v1759h197q104 0 159.5 -47t55.5 -145v-467q0 -152 -158 -182q158 -12 158 -152v-573q0 -137 25 -193h-164q-23 45 -23 199v587q0 66 -92 66v-852h-158zM221 983h35q57 0 57 72v514q0 67 -55 67h-2h-35v-653z" />
<glyph unicode="S" horiz-adv-x="524" d="M55 180v371h160v-377q0 -65 44 -65h1q47 0 47 65v150q0 49 -4 102t-24 137q-39 166 -90.5 312.5t-90.5 308.5q-29 111 -36 183.5t-7 131.5v82q0 205 205 205t205 -205v-340h-158v352q0 66 -47 66q-45 0 -45 -53v-115q0 -41 4 -97.5t27 -148.5q20 -84 45.5 -164 t51.5 -158.5t49.5 -158.5t41.5 -164q31 -147 31 -281v-139q0 -205 -205 -205t-205 205z" />
<glyph unicode="T" horiz-adv-x="477" d="M20 1622v137h435v-137h-138v-1622h-157v1622h-140z" />
<glyph unicode="U" horiz-adv-x="522" d="M57 180v1579h162v-1585q0 -65 42 -65h1q49 0 49 65v1585h158v-1579q0 -205 -207 -205q-205 0 -205 205z" />
<glyph unicode="V" horiz-adv-x="526" d="M25 1759h163l80 -1526l78 1526h160l-125 -1759h-229z" />
<glyph unicode="W" horiz-adv-x="901" d="M33 1759h166l53 -1526l102 1526h209l103 -1526l53 1526h158l-97 -1759h-229l-96 1407l-93 -1407h-227z" />
<glyph unicode="X" horiz-adv-x="557" d="M29 0l170 918l-164 841h190l62 -469l73 469h154l-162 -813l174 -946h-172l-94 614l-100 -614h-131z" />
<glyph unicode="Y" horiz-adv-x="546" d="M61 180v467h162v-473q0 -33 13.5 -49t35.5 -16q49 0 50 65v598q-23 -25 -53.5 -37t-59.5 -12q-66 0 -107 44t-41 107v885h162v-831q0 -31 13.5 -46.5t29.5 -15.5q25 0 40.5 15.5t15.5 46.5v831h159v-1579q0 -205 -215 -205q-205 0 -205 205z" />
<glyph unicode="Z" horiz-adv-x="411" d="M33 0v86l182 1536h-182v137h350v-102l-178 -1520h184v-137h-356z" />
<glyph unicode="[" horiz-adv-x="389" d="M113 -133v2029h258v-110h-121v-1811h121v-108h-258z" />
<glyph unicode="\" horiz-adv-x="403" d="M6 1759h103l284 -1759h-100z" />
<glyph unicode="]" horiz-adv-x="389" d="M16 -25h123v1811h-123v110h260v-2029h-260v108z" />
<glyph unicode="^" horiz-adv-x="595" d="M0 1053l244 706h104l246 -706h-102l-197 585l-199 -585h-96z" />
<glyph unicode="_" horiz-adv-x="733" d="M0 -127h737v-123h-737v123z" />
<glyph unicode="`" horiz-adv-x="430" d="M100 2097h176l52 -248h-125z" />
<glyph unicode="a" horiz-adv-x="528" d="M61 135v645q0 66 123 144q61 39 92 82t31 86v542q0 45 -51 45t-51 -45v-571h-144v557q0 166 195 166q203 0 203 -166v-1569q0 -14 1 -27.5t5 -23.5h-152q0 10 -1 27.5t-3 40.5q-39 -80 -108 -80q-59 0 -99.5 34.5t-40.5 112.5zM205 152q0 -47 51 -48q27 0 39 15.5 t12 38.5v743q-35 -23 -55.5 -37t-30.5 -26.5t-13 -24.5t-3 -29v-632z" />
<glyph unicode="b" horiz-adv-x="538" d="M63 0v1759h189q223 0 223 -192v-537q0 -133 -158 -160v-6q158 -18 158 -149v-522q0 -193 -223 -193h-189zM221 131h35q57 0 57 70v534q0 68 -57 68h-35v-672zM221 932h35q57 0 57 69v568q0 69 -55 69h-2h-35v-706z" />
<glyph unicode="c" horiz-adv-x="532" d="M61 180v1401q0 205 205 205q203 0 203 -205v-537h-158v549q0 63 -45 64q-45 0 -45 -64v-1419q0 -65 44 -65h1q45 0 45 65v612h158v-606q0 -205 -203 -205q-205 0 -205 205z" />
<glyph unicode="d" horiz-adv-x="538" d="M63 0v1759h189q223 0 223 -192v-1374q0 -193 -223 -193h-189zM221 131h35q57 0 57 70v1368q0 69 -55 69h-2h-35v-1507z" />
<glyph unicode="e" horiz-adv-x="542" d="M61 162v1450q0 84 52.5 129t156.5 45q98 0 153.5 -43t55.5 -115v-805h-258v-684q0 -43 51 -43q47 0 47 43v609h160v-609q0 -78 -56 -121t-151 -43q-211 0 -211 187zM221 932h98v694q0 45 -47 45q-51 0 -51 -45v-694z" />
<glyph unicode="f" horiz-adv-x="415" d="M63 0v1759h345v-143h-187v-649h187v-138h-187v-829h-158z" />
<glyph unicode="g" horiz-adv-x="540" d="M63 139v520h152v-524q0 -47 51 -47t51 47v672q-39 -72 -143 -72q-111 0 -111 156v731q0 150 109 150q115 0 141 -93l6 80h156v-1620q0 -45 -17.5 -75.5t-45 -50t-62.5 -29t-67 -9.5q-119 0 -169.5 41t-50.5 123zM215 915q0 -49 51 -49t51 49v674q0 47 -51 66 q-51 0 -51 -49v-691z" />
<glyph unicode="h" d="M63 0v1759h158v-825h90v825h158v-1759h-158v786h-90v-786h-158z" />
<glyph unicode="i" horiz-adv-x="292" d="M63 0v1759h158v-1759h-158z" />
<glyph unicode="j" horiz-adv-x="288" d="M12 0v119h19q49 0 49 47v1593h139v-1603q0 -86 -28.5 -121t-110.5 -35h-68z" />
<glyph unicode="k" horiz-adv-x="530" d="M63 0v1759h162v-827l121 827h164l-148 -841l144 -918h-168l-113 874v-874h-162z" />
<glyph unicode="l" horiz-adv-x="421" d="M63 0v1759h158v-1616h191v-143h-349z" />
<glyph unicode="m" horiz-adv-x="763" d="M63 0v1759h148v-65q27 78 133 78q86 0 111 -76q31 76 131 76q113 0 112 -146v-1626h-151v1604q0 49 -51 49q-41 0 -41 -49v-1604h-150v1604q0 49 -51 49q-39 0 -39 -49v-1604h-152z" />
<glyph unicode="n" horiz-adv-x="524" d="M63 0v1759h146v-65q39 78 137 78q111 0 111 -146v-1626h-150v1604q0 49 -51 49q-41 0 -41 -49v-1604h-152z" />
<glyph unicode="o" d="M61 180v1401q0 205 205 205q207 0 207 -205v-1401q0 -205 -207 -205q-205 0 -205 205zM221 170q0 -61 45 -61q47 0 47 63v1427q0 59 -47 60q-45 0 -45 -60v-1429z" />
<glyph unicode="p" horiz-adv-x="495" d="M63 0v1759h189q223 0 223 -192v-617q0 -106 -55 -151t-199 -45v-754h-158zM221 881h35q57 0 57 69v617q0 69 -55 69h-2h-35v-755z" />
<glyph unicode="q" horiz-adv-x="530" d="M57 180v1401q0 205 205 205q207 0 207 -205v-1401q0 -68 -19.5 -109.5t-60.5 -66.5h90v-125h-90q-41 0 -60.5 23.5t-19.5 77.5q-29 -4 -42 -4.5t-17 -0.5q-193 0 -193 205zM219 170q0 -61 43 -61q49 0 49 63v1425q0 59 -49 60q-43 0 -43 -60v-1427z" />
<glyph unicode="r" d="M63 0v1759h197q104 0 159.5 -47t55.5 -145v-467q0 -152 -158 -182q158 -12 158 -152v-573q0 -137 25 -193h-164q-23 45 -23 199v587q0 66 -92 66v-852h-158zM221 983h35q57 0 57 72v514q0 67 -55 67h-2h-35v-653z" />
<glyph unicode="s" horiz-adv-x="524" d="M55 180v371h160v-377q0 -65 44 -65h1q47 0 47 65v150q0 49 -4 102t-24 137q-39 166 -90.5 312.5t-90.5 308.5q-29 111 -36 183.5t-7 131.5v82q0 205 205 205t205 -205v-340h-158v352q0 66 -47 66q-45 0 -45 -53v-115q0 -41 4 -97.5t27 -148.5q20 -84 45.5 -164 t51.5 -158.5t49.5 -158.5t41.5 -164q31 -147 31 -281v-139q0 -205 -205 -205t-205 205z" />
<glyph unicode="t" horiz-adv-x="477" d="M20 1622v137h435v-137h-138v-1622h-157v1622h-140z" />
<glyph unicode="u" horiz-adv-x="522" d="M57 180v1579h162v-1585q0 -65 42 -65h1q49 0 49 65v1585h158v-1579q0 -205 -207 -205q-205 0 -205 205z" />
<glyph unicode="v" horiz-adv-x="526" d="M25 1759h163l80 -1526l78 1526h160l-125 -1759h-229z" />
<glyph unicode="w" horiz-adv-x="901" d="M33 1759h166l53 -1526l102 1526h209l103 -1526l53 1526h158l-97 -1759h-229l-96 1407l-93 -1407h-227z" />
<glyph unicode="x" horiz-adv-x="557" d="M29 0l170 918l-164 841h190l62 -469l73 469h154l-162 -813l174 -946h-172l-94 614l-100 -614h-131z" />
<glyph unicode="y" horiz-adv-x="546" d="M61 180v467h162v-473q0 -33 13.5 -49t35.5 -16q49 0 50 65v598q-23 -25 -53.5 -37t-59.5 -12q-66 0 -107 44t-41 107v885h162v-831q0 -31 13.5 -46.5t29.5 -15.5q25 0 40.5 15.5t15.5 46.5v831h159v-1579q0 -205 -215 -205q-205 0 -205 205z" />
<glyph unicode="z" horiz-adv-x="411" d="M33 0v86l182 1536h-182v137h350v-102l-178 -1520h184v-137h-356z" />
<glyph unicode="{" horiz-adv-x="559" d="M45 825v121q68 0 106.5 37t57 115t23 198.5t4.5 290.5q0 92 13 152.5t46 98.5t89 54.5t142 18.5v-125q-63 0 -101 -40t-38 -138q0 -131 -7 -254t-25.5 -221.5t-52.5 -164t-87 -83.5q53 -18 87 -86t52.5 -168.5t25.5 -224t7 -254.5q0 -96 38 -136.5t101 -40.5v-125 q-86 2 -142 18.5t-89 53.5t-46 97.5t-13 152.5q0 170 -4.5 293t-23 203t-57 118.5t-106.5 38.5z" />
<glyph unicode="|" horiz-adv-x="391" d="M127 -262v2214h129v-2214h-129z" />
<glyph unicode="}" horiz-adv-x="559" d="M33 -25q63 0 101 40t38 137q0 131 7 254.5t25.5 224t52.5 168t87 86.5q-53 18 -87 83.5t-52.5 164t-25.5 221.5t-7 254q0 98 -38 138t-101 40v125q86 -2 142 -18.5t88 -54.5t45.5 -98.5t13.5 -152.5q0 -170 4 -290.5t23.5 -198.5t58 -115t106.5 -37v-121 q-68 0 -106.5 -38.5t-58 -118.5t-23.5 -203t-4 -293q0 -92 -13.5 -152.5t-45.5 -97.5t-88 -53t-142 -19v125z" />
<glyph unicode="~" horiz-adv-x="743" d="M49 782q4 123 51 180.5t140 57.5q51 0 118 -25q31 -12 62 -27.5t58.5 -27.5t51 -21.5t39.5 -9.5q35 0 44.5 21.5t13.5 89.5h67q0 -115 -52 -177.5t-136 -62.5q-20 0 -49 4t-60 15q-31 12 -61.5 28.5t-60 30.5t-55 23.5t-44.5 9.5q-33 0 -44 -23.5t-11 -85.5h-72z" />
<glyph unicode="&#xa1;" horiz-adv-x="360" d="M102 0v1452h154v-1452h-154zM102 1587v172h154v-172h-154z" />
<glyph unicode="&#xa2;" horiz-adv-x="495" d="M55 459v844q0 182 168 200v256h66v-256q174 -12 174 -200v-259h-158v271q0 61 -45 61t-45 -61v-862q0 -63 45 -64q45 0 45 64v333h158v-327q0 -186 -174 -203v-256h-66v258q-168 16 -168 201z" />
<glyph unicode="&#xa3;" horiz-adv-x="593" d="M29 0v143h94v695h-90v120h90v623q0 205 203 205t202 -205v-473h-157v485q0 63 -45 64q-43 0 -43 -64v-635h159v-120h-159v-695h256v-143h-510z" />
<glyph unicode="&#xa4;" horiz-adv-x="759" d="M12 541l107 102q-63 82 -64 193q0 104 64 190l-105 102l74 72l98 -104q41 31 90.5 48t104.5 17q53 0 102 -17.5t90 -47.5l99 104l73 -72l-102 -102q63 -86 64 -190q0 -111 -64 -193l105 -102l-74 -74l-103 106q-82 -63 -190 -63q-106 0 -193 63l-102 -106zM145 836 q0 -49 18.5 -92.5t50.5 -74t75 -49t92 -18.5t92 18.5t74 49t49 74t18 92.5t-18 92t-49 73.5t-74 49t-92 18.5t-92 -18.5t-75 -49t-50.5 -73.5t-18.5 -92z" />
<glyph unicode="&#xa5;" horiz-adv-x="526" d="M25 1759h163l80 -626l78 626h160l-150 -893h140v-114h-148v-101h148v-114h-148v-537h-158v537h-149v114h149v101h-149v114h141z" />
<glyph unicode="&#xa6;" horiz-adv-x="391" d="M127 -262v868h129v-868h-129zM127 1112v840h129v-840h-129z" />
<glyph unicode="&#xa7;" horiz-adv-x="524" d="M37 37v297h127v-301q0 -51 37 -51t37 51v119q0 121 -32 236.5t-69 230t-68.5 232.5t-31.5 245v63q0 160 151 166q-16 80 -21 132t-5 97v68q0 164 162 164q164 0 163 -164v-272h-125v282q0 51 -38 51q-35 0 -35 -43v-92q0 -111 30.5 -225.5t68.5 -233t68.5 -238.5 t30.5 -241v-112q0 -154 -141 -162q10 -49 13 -95t3 -94v-110q0 -164 -161 -164q-164 0 -164 164zM164 1090q0 -80 15.5 -158t39 -158t51 -163t52.5 -171h2q39 0 38 52v120q0 39 -3 82t-19 109q-27 113 -60.5 213t-64.5 205q-2 2 -14 2q-16 0 -26.5 -10.5t-10.5 -32.5v-90z " />
<glyph unicode="&#xa8;" horiz-adv-x="593" d="M109 1878v168h143v-168h-143zM340 1878v168h141v-168h-141z" />
<glyph unicode="&#xaa;" horiz-adv-x="425" d="M68 1178v155q0 23 24.5 48.5t53 52t53 52t24.5 48.5v94q0 12 -18 12q-20 0 -21 -12v-127h-116v117q0 123 137 123q147 0 147 -123v-494q0 -16 1 -25t7 -26h-116v35q-10 -23 -34 -33t-40 -10q-43 0 -72.5 26.5t-29.5 86.5zM184 1188q0 -14 21 -14q18 0 18 16v196 q-25 -16 -32 -25t-7 -26v-147z" />
<glyph unicode="&#xab;" horiz-adv-x="544" d="M31 791v145l213 151v-118l-121 -107l121 -106v-117zM303 791v145l213 151v-118l-121 -107l121 -106v-117z" />
<glyph unicode="&#xac;" horiz-adv-x="649" d="M37 764v121h567v-570h-123v449h-444z" />
<glyph unicode="&#xad;" horiz-adv-x="319" d="M31 786v115h260v-115h-260z" />
<glyph unicode="&#xaf;" horiz-adv-x="593" d="M68 1921v82h456v-82h-456z" />
<glyph unicode="&#xb0;" horiz-adv-x="436" d="M27 1571q0 104 46 159.5t144 55.5t145.5 -55.5t47.5 -159.5t-47.5 -159.5t-145.5 -55.5t-144 55t-46 160zM102 1573q0 -137 115 -137q117 0 117 137q0 135 -117 135q-115 0 -115 -135z" />
<glyph unicode="&#xb1;" horiz-adv-x="649" d="M37 764v121h221v229h123v-229h223v-121h-223v-234h-123v234h-221zM41 121v121h567v-121h-567z" />
<glyph unicode="&#xb2;" horiz-adv-x="374" d="M61 920v45q0 8 2.5 21.5t7.5 35t12 53t17 78.5q18 80 40 139.5t40.5 111t30.5 99.5t12 107v62q0 35 -28 34q-25 0 -25 -34v-131h-96v122q0 59 27.5 91t99.5 32q66 0 91 -24.5t25 -93.5v-62q0 -72 -18 -136.5t-43 -135t-50.5 -152.5t-39.5 -186h141v-76h-246z" />
<glyph unicode="&#xb3;" horiz-adv-x="382" d="M70 1018v205h96v-207q0 -39 24 -39q27 0 27 39v203q0 25 -11 36t-40 17v74q29 4 40 19.5t11 35.5v269q0 39 -27 38q-25 0 -24 -38v-248h-96v241q0 123 120 123q121 0 121 -123v-254q0 -90 -71 -98q43 -8 57 -26.5t14 -61.5v-205q0 -59 -27.5 -91t-93.5 -32 q-121 0 -120 123z" />
<glyph unicode="&#xb4;" horiz-adv-x="430" d="M100 1849l52 248h176l-99 -248h-129z" />
<glyph unicode="&#xb6;" horiz-adv-x="610" d="M29 1315v252q0 193 182 192h332v-1886h-113v1763h-80v-1763h-114v1247q-119 0 -163 45t-44 150zM143 1315q0 -70 60 -70h33v391h-33q-59 0 -60 -69v-252z" />
<glyph unicode="&#xb7;" horiz-adv-x="276" d="M63 817v166h144v-166h-144z" />
<glyph unicode="&#xb8;" horiz-adv-x="200" d="M25 -360l22 282h133l-61 -282h-94z" />
<glyph unicode="&#xb9;" horiz-adv-x="276" d="M41 1608v68q63 0 86 84h78v-840h-99v688h-65z" />
<glyph unicode="&#xba;" horiz-adv-x="430" d="M68 1204v387q0 150 143 150q150 0 149 -150v-387q0 -145 -149 -145q-143 0 -143 145zM199 1198q0 -23 12 -22q16 0 16 24v406q0 23 -16 22q-12 0 -12 -22v-408z" />
<glyph unicode="&#xbb;" horiz-adv-x="544" d="M31 639v117l119 106l-119 107v118l213 -151v-145zM303 639v117l119 106l-119 107v118l213 -151v-145z" />
<glyph unicode="&#xbc;" horiz-adv-x="710" d="M61 1608v68q63 0 86 84h78v-840h-99v688h-65zM70 0l362 1759h96l-362 -1759h-96zM358 158v682h82v-604h78v604h90v-604h41v-78h-41v-158h-94v158h-156z" />
<glyph unicode="&#xbd;" horiz-adv-x="667" d="M61 1608v68q63 0 86 84h78v-840h-99v688h-65zM70 0l362 1759h96l-362 -1759h-96zM350 0v45q0 8 2.5 21.5t7.5 35t12 53t17 78.5q18 80 40 139.5t40.5 111t30.5 99.5t12 107v62q0 35 -28 34q-25 0 -25 -34v-131h-96v122q0 59 27.5 91t99.5 32q66 0 91 -24.5t25 -93.5v-62 q0 -72 -18 -136.5t-43 -135t-50.5 -152.5t-39.5 -186h141v-76h-246z" />
<glyph unicode="&#xbe;" horiz-adv-x="765" d="M66 1018v205h96v-207q0 -39 24 -39q27 0 27 39v203q0 25 -11 36t-40 17v74q29 4 40 19.5t11 35.5v269q0 39 -27 38q-25 0 -24 -38v-248h-96v241q0 123 120 123q121 0 121 -123v-254q0 -90 -71 -98q43 -8 57 -26.5t14 -61.5v-205q0 -59 -27.5 -91t-93.5 -32 q-121 0 -120 123zM125 0l362 1759h96l-362 -1759h-96zM413 158v682h82v-604h78v604h90v-604h41v-78h-41v-158h-94v158h-156z" />
<glyph unicode="&#xbf;" horiz-adv-x="411" d="M31 141v183q0 111 1 183.5t6 125.5t13 95t23 91q20 74 33.5 127t20.5 93t10 73t3 64v325h140v-325q0 -45 -3.5 -83t-10.5 -78t-18 -87t-28 -109q-16 -63 -26.5 -107t-14.5 -94.5t-5 -120t-1 -186.5v-174q0 -49 33 -49q31 0 31 49v430h145v-428q0 -166 -176 -166 q-53 0 -88 12.5t-54.5 35t-26.5 53t-7 67.5zM141 1587v172h140v-172h-140z" />
<glyph unicode="&#xc0;" horiz-adv-x="528" d="M61 135v645q0 66 123 144q61 39 92 82t31 86v542q0 45 -51 45t-51 -45v-571h-144v557q0 166 195 166q203 0 203 -166v-1569q0 -14 1 -27.5t5 -23.5h-152q0 10 -1 27.5t-3 40.5q-39 -80 -108 -80q-59 0 -99.5 34.5t-40.5 112.5zM100 2097h176l52 -248h-125zM205 152 q0 -47 51 -48q27 0 39 15.5t12 38.5v743q-35 -23 -55.5 -37t-30.5 -26.5t-13 -24.5t-3 -29v-632z" />
<glyph unicode="&#xc1;" horiz-adv-x="528" d="M61 135v645q0 66 123 144q61 39 92 82t31 86v542q0 45 -51 45t-51 -45v-571h-144v557q0 166 195 166q203 0 203 -166v-1569q0 -14 1 -27.5t5 -23.5h-152q0 10 -1 27.5t-3 40.5q-39 -80 -108 -80q-59 0 -99.5 34.5t-40.5 112.5zM198 1849l52 248h176l-99 -248h-129z M205 152q0 -47 51 -48q27 0 39 15.5t12 38.5v743q-35 -23 -55.5 -37t-30.5 -26.5t-13 -24.5t-3 -29v-632z" />
<glyph unicode="&#xc2;" horiz-adv-x="528" d="M61 135v645q0 66 123 144q61 39 92 82t31 86v542q0 45 -51 45t-51 -45v-571h-144v557q0 166 195 166q203 0 203 -166v-1569q0 -14 1 -27.5t5 -23.5h-152q0 10 -1 27.5t-3 40.5q-39 -80 -108 -80q-59 0 -99.5 34.5t-40.5 112.5zM92 1849l119 248h112l117 -248h-92l-82 140 l-82 -140h-92zM205 152q0 -47 51 -48q27 0 39 15.5t12 38.5v743q-35 -23 -55.5 -37t-30.5 -26.5t-13 -24.5t-3 -29v-632z" />
<glyph unicode="&#xc3;" horiz-adv-x="528" d="M61 135v645q0 66 123 144q61 39 92 82t31 86v542q0 45 -51 45t-51 -45v-571h-144v557q0 166 195 166q203 0 203 -166v-1569q0 -14 1 -27.5t5 -23.5h-152q0 10 -1 27.5t-3 40.5q-39 -80 -108 -80q-59 0 -99.5 34.5t-40.5 112.5zM62 1878q2 201 123 201q14 0 33.5 -5.5 t39.5 -15.5q39 -23 77 -48t59 -25q23 0 28.5 18t8.5 76h43q0 -98 -34 -150.5t-87 -52.5q-12 0 -30.5 3t-37.5 13q-18 10 -38.5 23.5t-39 26t-35 20.5t-28.5 8q-23 0 -30 -20.5t-7 -71.5h-45zM205 152q0 -47 51 -48q27 0 39 15.5t12 38.5v743q-35 -23 -55.5 -37t-30.5 -26.5 t-13 -24.5t-3 -29v-632z" />
<glyph unicode="&#xc4;" horiz-adv-x="528" d="M61 135v645q0 66 123 144q61 39 92 82t31 86v542q0 45 -51 45t-51 -45v-571h-144v557q0 166 195 166q203 0 203 -166v-1569q0 -14 1 -27.5t5 -23.5h-152q0 10 -1 27.5t-3 40.5q-39 -80 -108 -80q-59 0 -99.5 34.5t-40.5 112.5zM78 1878v168h143v-168h-143zM205 152 q0 -47 51 -48q27 0 39 15.5t12 38.5v743q-35 -23 -55.5 -37t-30.5 -26.5t-13 -24.5t-3 -29v-632zM309 1878v168h141v-168h-141z" />
<glyph unicode="&#xc5;" horiz-adv-x="528" d="M61 135v645q0 66 123 144q61 39 92 82t31 86v542q0 45 -51 45t-51 -45v-571h-144v557q0 166 195 166q203 0 203 -166v-1569q0 -14 1 -27.5t5 -23.5h-152q0 10 -1 27.5t-3 40.5q-39 -80 -108 -80q-59 0 -99.5 34.5t-40.5 112.5zM122 1958q0 139 134 139q135 0 135 -139 q0 -66 -34.5 -102.5t-100.5 -36.5q-68 0 -101 36.5t-33 102.5zM178 1960q0 -88 78 -88q80 0 79 88q0 88 -79 88q-78 0 -78 -88zM205 152q0 -47 51 -48q27 0 39 15.5t12 38.5v743q-35 -23 -55.5 -37t-30.5 -26.5t-13 -24.5t-3 -29v-632z" />
<glyph unicode="&#xc6;" horiz-adv-x="772" d="M63 123v657q0 31 33 68t74 70.5t78 61.5t45 42v588q0 49 -37 49q-51 0 -51 -49v-547h-142v530q0 166 193 166h244q207 0 207 -143v-793h-252v-684q0 -43 45 -43q47 0 47 43v609h160v-609q0 -41 -16.5 -71.5t-42 -51t-58.5 -31t-66 -10.5q-59 0 -93 27t-54 80 q-23 -53 -58.5 -80t-117.5 -27q-59 0 -98.5 44t-39.5 104zM205 139q0 -47 51 -47q37 0 37 47v750q-88 -51 -88 -105v-645zM455 932h92v680q0 45 -47 45q-45 0 -45 -45v-680z" />
<glyph unicode="&#xc7;" horiz-adv-x="532" d="M61 180v1401q0 205 205 205q203 0 203 -205v-537h-158v549q0 63 -45 64q-45 0 -45 -64v-1419q0 -66 45 -65q45 0 45 65v612h158v-606q0 -205 -203 -205q-205 0 -205 205zM175 -360l22 282h133l-61 -282h-94z" />
<glyph unicode="&#xc8;" horiz-adv-x="542" d="M61 162v1450q0 84 52.5 129t156.5 45q98 0 153.5 -43t55.5 -115v-805h-258v-684q0 -43 51 -43q47 0 47 43v609h160v-609q0 -78 -56 -121t-151 -43q-211 0 -211 187zM106 2097h176l52 -248h-125zM221 932h98v694q0 45 -47 45q-51 0 -51 -45v-694z" />
<glyph unicode="&#xc9;" horiz-adv-x="542" d="M61 162v1450q0 84 52.5 129t156.5 45q98 0 153.5 -43t55.5 -115v-805h-258v-684q0 -43 51 -43q47 0 47 43v609h160v-609q0 -78 -56 -121t-151 -43q-211 0 -211 187zM204 1849l52 248h176l-99 -248h-129zM221 932h98v694q0 45 -47 45q-51 0 -51 -45v-694z" />
<glyph unicode="&#xca;" horiz-adv-x="542" d="M61 162v1450q0 84 52.5 129t156.5 45q98 0 153.5 -43t55.5 -115v-805h-258v-684q0 -43 51 -43q47 0 47 43v609h160v-609q0 -78 -56 -121t-151 -43q-211 0 -211 187zM98 1849l119 248h112l117 -248h-92l-82 140l-82 -140h-92zM221 932h98v694q0 45 -47 45q-51 0 -51 -45 v-694z" />
<glyph unicode="&#xcb;" horiz-adv-x="542" d="M61 162v1450q0 84 52.5 129t156.5 45q98 0 153.5 -43t55.5 -115v-805h-258v-684q0 -43 51 -43q47 0 47 43v609h160v-609q0 -78 -56 -121t-151 -43q-211 0 -211 187zM86 1878v168h143v-168h-143zM221 932h98v694q0 45 -47 45q-51 0 -51 -45v-694zM317 1878v168h141v-168 h-141z" />
<glyph unicode="&#xcc;" horiz-adv-x="292" d="M-17 2097h176l52 -248h-125zM63 0v1759h158v-1759h-158z" />
<glyph unicode="&#xcd;" horiz-adv-x="292" d="M63 0v1759h158v-1759h-158zM84 1849l52 248h176l-99 -248h-129z" />
<glyph unicode="&#xce;" horiz-adv-x="292" d="M-27 1849l119 248h112l117 -248h-92l-82 140l-82 -140h-92zM63 0v1759h158v-1759h-158z" />
<glyph unicode="&#xcf;" horiz-adv-x="292" d="M-38 1878v168h143v-168h-143zM63 0v1759h158v-1759h-158zM193 1878v168h141v-168h-141z" />
<glyph unicode="&#xd0;" horiz-adv-x="524" d="M0 823v103h49v833h189q221 0 221 -192v-1374q0 -193 -221 -193h-189v823h-49zM207 131h33q63 0 63 70v1368q0 70 -63 69h-33v-712h47v-103h-47v-692z" />
<glyph unicode="&#xd1;" horiz-adv-x="524" d="M57 1878q2 201 123 201q14 0 33.5 -5.5t39.5 -15.5q39 -23 77 -48t59 -25q23 0 28.5 18t8.5 76h43q0 -98 -34 -150.5t-87 -52.5q-12 0 -30.5 3t-37.5 13q-18 10 -38.5 23.5t-39 26t-35 20.5t-28.5 8q-23 0 -30 -20.5t-7 -71.5h-45zM63 0v1759h146v-65q39 78 137 78 q111 0 111 -146v-1626h-150v1604q0 49 -51 49q-41 0 -41 -49v-1604h-152z" />
<glyph unicode="&#xd2;" d="M61 180v1401q0 205 205 205q207 0 207 -205v-1401q0 -205 -207 -205q-205 0 -205 205zM102 2097h176l52 -248h-125zM221 170q0 -61 45 -61q47 0 47 63v1427q0 59 -47 60q-45 0 -45 -60v-1429z" />
<glyph unicode="&#xd3;" d="M61 180v1401q0 205 205 205q207 0 207 -205v-1401q0 -205 -207 -205q-205 0 -205 205zM200 1849l52 248h176l-99 -248h-129zM221 170q0 -61 45 -61q47 0 47 63v1427q0 59 -47 60q-45 0 -45 -60v-1429z" />
<glyph unicode="&#xd4;" d="M61 180v1401q0 205 205 205q207 0 207 -205v-1401q0 -205 -207 -205q-205 0 -205 205zM96 1849l119 248h112l117 -248h-92l-82 140l-82 -140h-92zM221 170q0 -61 45 -61q47 0 47 63v1427q0 59 -47 60q-45 0 -45 -60v-1429z" />
<glyph unicode="&#xd5;" d="M61 180v1401q0 205 205 205q207 0 207 -205v-1401q0 -205 -207 -205q-205 0 -205 205zM64 1878q2 201 123 201q14 0 33.5 -5.5t39.5 -15.5q39 -23 77 -48t59 -25q23 0 28.5 18t8.5 76h43q0 -98 -34 -150.5t-87 -52.5q-12 0 -30.5 3t-37.5 13q-18 10 -38.5 23.5t-39 26 t-35 20.5t-28.5 8q-23 0 -30 -20.5t-7 -71.5h-45zM221 170q0 -61 45 -61q47 0 47 63v1427q0 59 -47 60q-45 0 -45 -60v-1429z" />
<glyph unicode="&#xd6;" d="M61 180v1401q0 205 205 205q207 0 207 -205v-1401q0 -205 -207 -205q-205 0 -205 205zM82 1878v168h143v-168h-143zM221 170q0 -61 45 -61q47 0 47 63v1427q0 59 -47 60q-45 0 -45 -60v-1429zM313 1878v168h141v-168h-141z" />
<glyph unicode="&#xd7;" horiz-adv-x="649" d="M70 662l163 163l-153 154l84 86l155 -156l162 164l88 -88l-163 -162l159 -157l-86 -86l-157 157l-164 -164z" />
<glyph unicode="&#xd8;" horiz-adv-x="557" d="M4 0l68 238v1343q0 205 202 205q150 0 193 -113l27 96l45 -14l-58 -205v-1370q0 -205 -207 -205q-168 0 -194 131l-35 -120zM231 170q0 -61 43 -61q49 0 50 63v817l-93 -336v-483zM231 817l93 338v444q0 59 -50 60q-43 0 -43 -60v-782z" />
<glyph unicode="&#xd9;" horiz-adv-x="522" d="M57 180v1579h162v-1585q0 -66 43 -65q49 0 49 65v1585h158v-1579q0 -205 -207 -205q-205 0 -205 205zM100 2097h176l52 -248h-125z" />
<glyph unicode="&#xda;" horiz-adv-x="522" d="M57 180v1579h162v-1585q0 -66 43 -65q49 0 49 65v1585h158v-1579q0 -205 -207 -205q-205 0 -205 205zM192 1849l52 248h176l-99 -248h-129z" />
<glyph unicode="&#xdb;" horiz-adv-x="522" d="M57 180v1579h162v-1585q0 -66 43 -65q49 0 49 65v1585h158v-1579q0 -205 -207 -205q-205 0 -205 205zM90 1849l119 248h112l117 -248h-92l-82 140l-82 -140h-92z" />
<glyph unicode="&#xdc;" horiz-adv-x="522" d="M57 180v1579h162v-1585q0 -66 43 -65q49 0 49 65v1585h158v-1579q0 -205 -207 -205q-205 0 -205 205zM76 1878v168h143v-168h-143zM307 1878v168h141v-168h-141z" />
<glyph unicode="&#xdd;" horiz-adv-x="546" d="M61 180v467h162v-473q0 -33 13.5 -49t35.5 -16q49 0 50 65v598q-23 -25 -53.5 -37t-59.5 -12q-66 0 -107 44t-41 107v885h162v-831q0 -31 13.5 -46.5t29.5 -15.5q25 0 40.5 15.5t15.5 46.5v831h159v-1579q0 -205 -215 -205q-205 0 -205 205zM206 1849l52 248h176 l-99 -248h-129z" />
<glyph unicode="&#xde;" horiz-adv-x="491" d="M63 0v1759h158v-424h33q223 0 223 -192v-617q0 -109 -55 -151.5t-199 -42.5v-332h-160zM223 457h35q59 0 59 69v617q0 72 -59 71h-35v-757z" />
<glyph unicode="&#xdf;" horiz-adv-x="1011" d="M55 180v371h160v-377q0 -66 45 -65q47 0 47 65v150q0 49 -4 102t-24 137q-39 166 -90.5 312.5t-90.5 308.5q-29 111 -36 183.5t-7 131.5v82q0 205 205 205t205 -205v-340h-158v352q0 66 -47 66q-45 0 -45 -53v-115q0 -41 4 -97.5t27 -148.5q20 -84 45.5 -164t51.5 -158.5 t49.5 -158.5t41.5 -164q31 -147 31 -281v-139q0 -205 -205 -205t-205 205zM542 180v371h160v-377q0 -66 45 -65q47 0 47 65v150q0 49 -4 102t-24 137q-39 166 -90.5 312.5t-90.5 308.5q-29 111 -36 183.5t-7 131.5v82q0 205 205 205t205 -205v-340h-158v352q0 66 -47 66 q-45 0 -45 -53v-115q0 -41 4 -97.5t27 -148.5q20 -84 45.5 -164t51.5 -158.5t49.5 -158.5t41.5 -164q31 -147 31 -281v-139q0 -205 -205 -205t-205 205z" />
<glyph unicode="&#xe0;" horiz-adv-x="528" d="M61 135v645q0 66 123 144q61 39 92 82t31 86v542q0 45 -51 45t-51 -45v-571h-144v557q0 166 195 166q203 0 203 -166v-1569q0 -14 1 -27.5t5 -23.5h-152q0 10 -1 27.5t-3 40.5q-39 -80 -108 -80q-59 0 -99.5 34.5t-40.5 112.5zM100 2097h176l52 -248h-125zM205 152 q0 -47 51 -48q27 0 39 15.5t12 38.5v743q-35 -23 -55.5 -37t-30.5 -26.5t-13 -24.5t-3 -29v-632z" />
<glyph unicode="&#xe1;" horiz-adv-x="528" d="M61 135v645q0 66 123 144q61 39 92 82t31 86v542q0 45 -51 45t-51 -45v-571h-144v557q0 166 195 166q203 0 203 -166v-1569q0 -14 1 -27.5t5 -23.5h-152q0 10 -1 27.5t-3 40.5q-39 -80 -108 -80q-59 0 -99.5 34.5t-40.5 112.5zM198 1849l52 248h176l-99 -248h-129z M205 152q0 -47 51 -48q27 0 39 15.5t12 38.5v743q-35 -23 -55.5 -37t-30.5 -26.5t-13 -24.5t-3 -29v-632z" />
<glyph unicode="&#xe2;" horiz-adv-x="528" d="M61 135v645q0 66 123 144q61 39 92 82t31 86v542q0 45 -51 45t-51 -45v-571h-144v557q0 166 195 166q203 0 203 -166v-1569q0 -14 1 -27.5t5 -23.5h-152q0 10 -1 27.5t-3 40.5q-39 -80 -108 -80q-59 0 -99.5 34.5t-40.5 112.5zM92 1849l119 248h112l117 -248h-92l-82 140 l-82 -140h-92zM205 152q0 -47 51 -48q27 0 39 15.5t12 38.5v743q-35 -23 -55.5 -37t-30.5 -26.5t-13 -24.5t-3 -29v-632z" />
<glyph unicode="&#xe3;" horiz-adv-x="528" d="M61 135v645q0 66 123 144q61 39 92 82t31 86v542q0 45 -51 45t-51 -45v-571h-144v557q0 166 195 166q203 0 203 -166v-1569q0 -14 1 -27.5t5 -23.5h-152q0 10 -1 27.5t-3 40.5q-39 -80 -108 -80q-59 0 -99.5 34.5t-40.5 112.5zM62 1878q2 201 123 201q14 0 33.5 -5.5 t39.5 -15.5q39 -23 77 -48t59 -25q23 0 28.5 18t8.5 76h43q0 -98 -34 -150.5t-87 -52.5q-12 0 -30.5 3t-37.5 13q-18 10 -38.5 23.5t-39 26t-35 20.5t-28.5 8q-23 0 -30 -20.5t-7 -71.5h-45zM205 152q0 -47 51 -48q27 0 39 15.5t12 38.5v743q-35 -23 -55.5 -37t-30.5 -26.5 t-13 -24.5t-3 -29v-632z" />
<glyph unicode="&#xe4;" horiz-adv-x="528" d="M61 135v645q0 66 123 144q61 39 92 82t31 86v542q0 45 -51 45t-51 -45v-571h-144v557q0 166 195 166q203 0 203 -166v-1569q0 -14 1 -27.5t5 -23.5h-152q0 10 -1 27.5t-3 40.5q-39 -80 -108 -80q-59 0 -99.5 34.5t-40.5 112.5zM78 1878v168h143v-168h-143zM205 152 q0 -47 51 -48q27 0 39 15.5t12 38.5v743q-35 -23 -55.5 -37t-30.5 -26.5t-13 -24.5t-3 -29v-632zM309 1878v168h141v-168h-141z" />
<glyph unicode="&#xe5;" horiz-adv-x="528" d="M61 135v645q0 66 123 144q61 39 92 82t31 86v542q0 45 -51 45t-51 -45v-571h-144v557q0 166 195 166q203 0 203 -166v-1569q0 -14 1 -27.5t5 -23.5h-152q0 10 -1 27.5t-3 40.5q-39 -80 -108 -80q-59 0 -99.5 34.5t-40.5 112.5zM122 1958q0 139 134 139q135 0 135 -139 q0 -66 -34.5 -102.5t-100.5 -36.5q-68 0 -101 36.5t-33 102.5zM178 1960q0 -88 78 -88q80 0 79 88q0 88 -79 88q-78 0 -78 -88zM205 152q0 -47 51 -48q27 0 39 15.5t12 38.5v743q-35 -23 -55.5 -37t-30.5 -26.5t-13 -24.5t-3 -29v-632z" />
<glyph unicode="&#xe6;" horiz-adv-x="772" d="M63 123v657q0 31 33 68t74 70.5t78 61.5t45 42v588q0 49 -37 49q-51 0 -51 -49v-547h-142v530q0 166 193 166h244q207 0 207 -143v-793h-252v-684q0 -43 45 -43q47 0 47 43v609h160v-609q0 -41 -16.5 -71.5t-42 -51t-58.5 -31t-66 -10.5q-59 0 -93 27t-54 80 q-23 -53 -58.5 -80t-117.5 -27q-59 0 -98.5 44t-39.5 104zM205 139q0 -47 51 -47q37 0 37 47v750q-88 -51 -88 -105v-645zM455 932h92v680q0 45 -47 45q-45 0 -45 -45v-680z" />
<glyph unicode="&#xe7;" horiz-adv-x="532" d="M61 180v1401q0 205 205 205q203 0 203 -205v-537h-158v549q0 63 -45 64q-45 0 -45 -64v-1419q0 -66 45 -65q45 0 45 65v612h158v-606q0 -205 -203 -205q-205 0 -205 205zM175 -360l22 282h133l-61 -282h-94z" />
<glyph unicode="&#xe8;" horiz-adv-x="542" d="M61 162v1450q0 84 52.5 129t156.5 45q98 0 153.5 -43t55.5 -115v-805h-258v-684q0 -43 51 -43q47 0 47 43v609h160v-609q0 -78 -56 -121t-151 -43q-211 0 -211 187zM106 2097h176l52 -248h-125zM221 932h98v694q0 45 -47 45q-51 0 -51 -45v-694z" />
<glyph unicode="&#xe9;" horiz-adv-x="542" d="M61 162v1450q0 84 52.5 129t156.5 45q98 0 153.5 -43t55.5 -115v-805h-258v-684q0 -43 51 -43q47 0 47 43v609h160v-609q0 -78 -56 -121t-151 -43q-211 0 -211 187zM204 1849l52 248h176l-99 -248h-129zM221 932h98v694q0 45 -47 45q-51 0 -51 -45v-694z" />
<glyph unicode="&#xea;" horiz-adv-x="542" d="M61 162v1450q0 84 52.5 129t156.5 45q98 0 153.5 -43t55.5 -115v-805h-258v-684q0 -43 51 -43q47 0 47 43v609h160v-609q0 -78 -56 -121t-151 -43q-211 0 -211 187zM98 1849l119 248h112l117 -248h-92l-82 140l-82 -140h-92zM221 932h98v694q0 45 -47 45q-51 0 -51 -45 v-694z" />
<glyph unicode="&#xeb;" horiz-adv-x="542" d="M61 162v1450q0 84 52.5 129t156.5 45q98 0 153.5 -43t55.5 -115v-805h-258v-684q0 -43 51 -43q47 0 47 43v609h160v-609q0 -78 -56 -121t-151 -43q-211 0 -211 187zM86 1878v168h143v-168h-143zM221 932h98v694q0 45 -47 45q-51 0 -51 -45v-694zM317 1878v168h141v-168 h-141z" />
<glyph unicode="&#xec;" horiz-adv-x="292" d="M-17 2097h176l52 -248h-125zM63 0v1759h158v-1759h-158z" />
<glyph unicode="&#xed;" horiz-adv-x="292" d="M63 0v1759h158v-1759h-158zM84 1849l52 248h176l-99 -248h-129z" />
<glyph unicode="&#xee;" horiz-adv-x="292" d="M-27 1849l119 248h112l117 -248h-92l-82 140l-82 -140h-92zM63 0v1759h158v-1759h-158z" />
<glyph unicode="&#xef;" horiz-adv-x="292" d="M-38 1878v168h143v-168h-143zM63 0v1759h158v-1759h-158zM193 1878v168h141v-168h-141z" />
<glyph unicode="&#xf0;" horiz-adv-x="524" d="M0 823v103h49v833h189q221 0 221 -192v-1374q0 -193 -221 -193h-189v823h-49zM207 131h33q63 0 63 70v1368q0 70 -63 69h-33v-712h47v-103h-47v-692z" />
<glyph unicode="&#xf1;" horiz-adv-x="524" d="M57 1878q2 201 123 201q14 0 33.5 -5.5t39.5 -15.5q39 -23 77 -48t59 -25q23 0 28.5 18t8.5 76h43q0 -98 -34 -150.5t-87 -52.5q-12 0 -30.5 3t-37.5 13q-18 10 -38.5 23.5t-39 26t-35 20.5t-28.5 8q-23 0 -30 -20.5t-7 -71.5h-45zM63 0v1759h146v-65q39 78 137 78 q111 0 111 -146v-1626h-150v1604q0 49 -51 49q-41 0 -41 -49v-1604h-152z" />
<glyph unicode="&#xf2;" d="M61 180v1401q0 205 205 205q207 0 207 -205v-1401q0 -205 -207 -205q-205 0 -205 205zM102 2097h176l52 -248h-125zM221 170q0 -61 45 -61q47 0 47 63v1427q0 59 -47 60q-45 0 -45 -60v-1429z" />
<glyph unicode="&#xf3;" d="M61 180v1401q0 205 205 205q207 0 207 -205v-1401q0 -205 -207 -205q-205 0 -205 205zM200 1849l52 248h176l-99 -248h-129zM221 170q0 -61 45 -61q47 0 47 63v1427q0 59 -47 60q-45 0 -45 -60v-1429z" />
<glyph unicode="&#xf4;" d="M61 180v1401q0 205 205 205q207 0 207 -205v-1401q0 -205 -207 -205q-205 0 -205 205zM96 1849l119 248h112l117 -248h-92l-82 140l-82 -140h-92zM221 170q0 -61 45 -61q47 0 47 63v1427q0 59 -47 60q-45 0 -45 -60v-1429z" />
<glyph unicode="&#xf5;" d="M61 180v1401q0 205 205 205q207 0 207 -205v-1401q0 -205 -207 -205q-205 0 -205 205zM64 1878q2 201 123 201q14 0 33.5 -5.5t39.5 -15.5q39 -23 77 -48t59 -25q23 0 28.5 18t8.5 76h43q0 -98 -34 -150.5t-87 -52.5q-12 0 -30.5 3t-37.5 13q-18 10 -38.5 23.5t-39 26 t-35 20.5t-28.5 8q-23 0 -30 -20.5t-7 -71.5h-45zM221 170q0 -61 45 -61q47 0 47 63v1427q0 59 -47 60q-45 0 -45 -60v-1429z" />
<glyph unicode="&#xf6;" d="M61 180v1401q0 205 205 205q207 0 207 -205v-1401q0 -205 -207 -205q-205 0 -205 205zM82 1878v168h143v-168h-143zM221 170q0 -61 45 -61q47 0 47 63v1427q0 59 -47 60q-45 0 -45 -60v-1429zM313 1878v168h141v-168h-141z" />
<glyph unicode="&#xf7;" horiz-adv-x="649" d="M37 764v121h567v-121h-567zM251 375v168h144v-168h-144zM251 1104v168h144v-168h-144z" />
<glyph unicode="&#xf8;" horiz-adv-x="557" d="M4 0l68 238v1343q0 205 202 205q150 0 193 -113l27 96l45 -14l-58 -205v-1370q0 -205 -207 -205q-168 0 -194 131l-35 -120zM231 170q0 -61 43 -61q49 0 50 63v817l-93 -336v-483zM231 817l93 338v444q0 59 -50 60q-43 0 -43 -60v-782z" />
<glyph unicode="&#xf9;" horiz-adv-x="522" d="M57 180v1579h162v-1585q0 -66 43 -65q49 0 49 65v1585h158v-1579q0 -205 -207 -205q-205 0 -205 205zM100 2097h176l52 -248h-125z" />
<glyph unicode="&#xfa;" horiz-adv-x="522" d="M57 180v1579h162v-1585q0 -66 43 -65q49 0 49 65v1585h158v-1579q0 -205 -207 -205q-205 0 -205 205zM192 1849l52 248h176l-99 -248h-129z" />
<glyph unicode="&#xfb;" horiz-adv-x="522" d="M57 180v1579h162v-1585q0 -66 43 -65q49 0 49 65v1585h158v-1579q0 -205 -207 -205q-205 0 -205 205zM90 1849l119 248h112l117 -248h-92l-82 140l-82 -140h-92z" />
<glyph unicode="&#xfc;" horiz-adv-x="522" d="M57 180v1579h162v-1585q0 -66 43 -65q49 0 49 65v1585h158v-1579q0 -205 -207 -205q-205 0 -205 205zM76 1878v168h143v-168h-143zM307 1878v168h141v-168h-141z" />
<glyph unicode="&#xfd;" horiz-adv-x="546" d="M61 180v467h162v-473q0 -33 13.5 -49t35.5 -16q49 0 50 65v598q-23 -25 -53.5 -37t-59.5 -12q-66 0 -107 44t-41 107v885h162v-831q0 -31 13.5 -46.5t29.5 -15.5q25 0 40.5 15.5t15.5 46.5v831h159v-1579q0 -205 -215 -205q-205 0 -205 205zM206 1849l52 248h176 l-99 -248h-129z" />
<glyph unicode="&#xfe;" horiz-adv-x="491" d="M63 0v1759h158v-424h33q223 0 223 -192v-617q0 -109 -55 -151.5t-199 -42.5v-332h-160zM223 457h35q59 0 59 69v617q0 72 -59 71h-35v-757z" />
<glyph unicode="&#xff;" horiz-adv-x="546" d="M61 180v467h162v-473q0 -33 13.5 -49t35.5 -16q49 0 50 65v598q-23 -25 -53.5 -37t-59.5 -12q-66 0 -107 44t-41 107v885h162v-831q0 -31 13.5 -46.5t29.5 -15.5q25 0 40.5 15.5t15.5 46.5v831h159v-1579q0 -205 -215 -205q-205 0 -205 205zM91 1878v168h143v-168h-143z M322 1878v168h141v-168h-141z" />
<glyph unicode="&#x100;" horiz-adv-x="528" d="M39 1921v82h456v-82h-456zM61 135v645q0 66 123 144q61 39 92 82t31 86v542q0 45 -51 45t-51 -45v-571h-144v557q0 166 195 166q203 0 203 -166v-1569q0 -14 1 -27.5t5 -23.5h-152q0 10 -1 27.5t-3 40.5q-39 -80 -108 -80q-59 0 -99.5 34.5t-40.5 112.5zM205 152 q0 -47 51 -48q27 0 39 15.5t12 38.5v743q-35 -23 -55.5 -37t-30.5 -26.5t-13 -24.5t-3 -29v-632z" />
<glyph unicode="&#x101;" horiz-adv-x="528" d="M39 1921v82h456v-82h-456zM61 135v645q0 66 123 144q61 39 92 82t31 86v542q0 45 -51 45t-51 -45v-571h-144v557q0 166 195 166q203 0 203 -166v-1569q0 -14 1 -27.5t5 -23.5h-152q0 10 -1 27.5t-3 40.5q-39 -80 -108 -80q-59 0 -99.5 34.5t-40.5 112.5zM205 152 q0 -47 51 -48q27 0 39 15.5t12 38.5v743q-35 -23 -55.5 -37t-30.5 -26.5t-13 -24.5t-3 -29v-632z" />
<glyph unicode="&#x102;" horiz-adv-x="528" d="M61 135v645q0 66 123 144q61 39 92 82t31 86v542q0 45 -51 45t-51 -45v-571h-144v557q0 166 195 166q203 0 203 -166v-1569q0 -14 1 -27.5t5 -23.5h-152q0 10 -1 27.5t-3 40.5q-39 -80 -108 -80q-59 0 -99.5 34.5t-40.5 112.5zM64 2097h96q0 -80 23.5 -136t83.5 -56 q61 0 87.5 56t26.5 136h92q0 -272 -206 -272q-203 0 -203 272zM205 152q0 -47 51 -48q27 0 39 15.5t12 38.5v743q-35 -23 -55.5 -37t-30.5 -26.5t-13 -24.5t-3 -29v-632z" />
<glyph unicode="&#x103;" horiz-adv-x="528" d="M61 135v645q0 66 123 144q61 39 92 82t31 86v542q0 45 -51 45t-51 -45v-571h-144v557q0 166 195 166q203 0 203 -166v-1569q0 -14 1 -27.5t5 -23.5h-152q0 10 -1 27.5t-3 40.5q-39 -80 -108 -80q-59 0 -99.5 34.5t-40.5 112.5zM64 2097h96q0 -80 23.5 -136t83.5 -56 q61 0 87.5 56t26.5 136h92q0 -272 -206 -272q-203 0 -203 272zM205 152q0 -47 51 -48q27 0 39 15.5t12 38.5v743q-35 -23 -55.5 -37t-30.5 -26.5t-13 -24.5t-3 -29v-632z" />
<glyph unicode="&#x104;" horiz-adv-x="528" d="M61 135v645q0 66 123 144q61 39 92 82t31 86v542q0 45 -51 45t-51 -45v-571h-144v557q0 166 195 166q203 0 203 -166v-1569v-27.5t4 -23.5l-160 -121q-23 -16 -31 -35.5t-8 -58.5q0 -29 9.5 -38t27.5 -9q16 0 26.5 9t10.5 38v37h125v-33q0 -84 -41 -116.5t-121 -32.5 q-82 0 -123 31.5t-41 105.5q0 76 58 119l120 77l-6 95q-39 -80 -108 -80q-59 0 -99.5 44t-40.5 103zM205 152q0 -47 51 -48q27 0 39 15.5t12 38.5v743q-35 -23 -55.5 -37t-30.5 -26.5t-13 -24.5t-3 -29v-632z" />
<glyph unicode="&#x105;" horiz-adv-x="528" d="M61 135v645q0 66 123 144q61 39 92 82t31 86v542q0 45 -51 45t-51 -45v-571h-144v557q0 166 195 166q203 0 203 -166v-1569v-27.5t4 -23.5l-160 -121q-23 -16 -31 -35.5t-8 -58.5q0 -29 9.5 -38t27.5 -9q16 0 26.5 9t10.5 38v37h125v-33q0 -84 -41 -116.5t-121 -32.5 q-82 0 -123 31.5t-41 105.5q0 76 58 119l120 77l-6 95q-39 -80 -108 -80q-59 0 -99.5 44t-40.5 103zM205 152q0 -47 51 -48q27 0 39 15.5t12 38.5v743q-35 -23 -55.5 -37t-30.5 -26.5t-13 -24.5t-3 -29v-632z" />
<glyph unicode="&#x106;" horiz-adv-x="532" d="M61 180v1401q0 205 205 205q203 0 203 -205v-537h-158v549q0 63 -45 64q-45 0 -45 -64v-1419q0 -66 45 -65q45 0 45 65v612h158v-606q0 -205 -203 -205q-205 0 -205 205zM217 1849l52 248h176l-99 -248h-129z" />
<glyph unicode="&#x107;" horiz-adv-x="532" d="M61 180v1401q0 205 205 205q203 0 203 -205v-537h-158v549q0 63 -45 64q-45 0 -45 -64v-1419q0 -66 45 -65q45 0 45 65v612h158v-606q0 -205 -203 -205q-205 0 -205 205zM217 1849l52 248h176l-99 -248h-129z" />
<glyph unicode="&#x10a;" horiz-adv-x="532" d="M61 180v1401q0 205 205 205q203 0 203 -205v-537h-158v549q0 63 -45 64q-45 0 -45 -64v-1419q0 -66 45 -65q45 0 45 65v612h158v-606q0 -205 -203 -205q-205 0 -205 205zM195 1878v168h143v-168h-143z" />
<glyph unicode="&#x10b;" horiz-adv-x="532" d="M61 180v1401q0 205 205 205q203 0 203 -205v-537h-158v549q0 63 -45 64q-45 0 -45 -64v-1419q0 -66 45 -65q45 0 45 65v612h158v-606q0 -205 -203 -205q-205 0 -205 205zM195 1878v168h143v-168h-143z" />
<glyph unicode="&#x10c;" horiz-adv-x="532" d="M61 180v1401q0 205 205 205q203 0 203 -205v-537h-158v549q0 63 -45 64q-45 0 -45 -64v-1419q0 -66 45 -65q45 0 45 65v612h158v-606q0 -205 -203 -205q-205 0 -205 205zM94 2097h92l82 -139l82 139h92l-119 -248h-112z" />
<glyph unicode="&#x10d;" horiz-adv-x="532" d="M61 180v1401q0 205 205 205q203 0 203 -205v-537h-158v549q0 63 -45 64q-45 0 -45 -64v-1419q0 -66 45 -65q45 0 45 65v612h158v-606q0 -205 -203 -205q-205 0 -205 205zM94 2097h92l82 -139l82 139h92l-119 -248h-112z" />
<glyph unicode="&#x10e;" horiz-adv-x="538" d="M63 0v1759h189q223 0 223 -192v-1374q0 -193 -223 -193h-189zM98 2097h92l82 -139l82 139h92l-119 -248h-112zM221 131h35q57 0 57 70v1368q0 70 -57 69h-35v-1507z" />
<glyph unicode="&#x10f;" horiz-adv-x="538" d="M63 0v1759h189q223 0 223 -192v-1374q0 -193 -223 -193h-189zM98 2097h92l82 -139l82 139h92l-119 -248h-112zM221 131h35q57 0 57 70v1368q0 70 -57 69h-35v-1507z" />
<glyph unicode="&#x110;" horiz-adv-x="524" d="M0 823v103h49v833h189q221 0 221 -192v-1374q0 -193 -221 -193h-189v823h-49zM207 131h33q63 0 63 70v1368q0 70 -63 69h-33v-712h47v-103h-47v-692z" />
<glyph unicode="&#x111;" horiz-adv-x="524" d="M0 823v103h49v833h189q221 0 221 -192v-1374q0 -193 -221 -193h-189v823h-49zM207 131h33q63 0 63 70v1368q0 70 -63 69h-33v-712h47v-103h-47v-692z" />
<glyph unicode="&#x112;" horiz-adv-x="542" d="M45 1921v82h456v-82h-456zM61 162v1450q0 84 52.5 129t156.5 45q98 0 153.5 -43t55.5 -115v-805h-258v-684q0 -43 51 -43q47 0 47 43v609h160v-609q0 -78 -56 -121t-151 -43q-211 0 -211 187zM221 932h98v694q0 45 -47 45q-51 0 -51 -45v-694z" />
<glyph unicode="&#x113;" horiz-adv-x="542" d="M45 1921v82h456v-82h-456zM61 162v1450q0 84 52.5 129t156.5 45q98 0 153.5 -43t55.5 -115v-805h-258v-684q0 -43 51 -43q47 0 47 43v609h160v-609q0 -78 -56 -121t-151 -43q-211 0 -211 187zM221 932h98v694q0 45 -47 45q-51 0 -51 -45v-694z" />
<glyph unicode="&#x114;" horiz-adv-x="542" d="M61 162v1450q0 84 52.5 129t156.5 45q98 0 153.5 -43t55.5 -115v-805h-258v-684q0 -43 51 -43q47 0 47 43v609h160v-609q0 -78 -56 -121t-151 -43q-211 0 -211 187zM70 2097h96q0 -80 23.5 -136t83.5 -56q61 0 87.5 56t26.5 136h92q0 -272 -206 -272q-203 0 -203 272z M221 932h98v694q0 45 -47 45q-51 0 -51 -45v-694z" />
<glyph unicode="&#x115;" horiz-adv-x="542" d="M61 162v1450q0 84 52.5 129t156.5 45q98 0 153.5 -43t55.5 -115v-805h-258v-684q0 -43 51 -43q47 0 47 43v609h160v-609q0 -78 -56 -121t-151 -43q-211 0 -211 187zM70 2097h96q0 -80 23.5 -136t83.5 -56q61 0 87.5 56t26.5 136h92q0 -272 -206 -272q-203 0 -203 272z M221 932h98v694q0 45 -47 45q-51 0 -51 -45v-694z" />
<glyph unicode="&#x116;" horiz-adv-x="542" d="M61 162v1450q0 84 52.5 129t156.5 45q98 0 153.5 -43t55.5 -115v-805h-258v-684q0 -43 51 -43q47 0 47 43v609h160v-609q0 -78 -56 -121t-151 -43q-211 0 -211 187zM199 1878v168h143v-168h-143zM221 932h98v694q0 45 -47 45q-51 0 -51 -45v-694z" />
<glyph unicode="&#x117;" horiz-adv-x="542" d="M61 162v1450q0 84 52.5 129t156.5 45q98 0 153.5 -43t55.5 -115v-805h-258v-684q0 -43 51 -43q47 0 47 43v609h160v-609q0 -78 -56 -121t-151 -43q-211 0 -211 187zM199 1878v168h143v-168h-143zM221 932h98v694q0 45 -47 45q-51 0 -51 -45v-694z" />
<glyph unicode="&#x118;" horiz-adv-x="542" d="M61 184v1393q0 209 209 209q96 0 152.5 -43t56.5 -115v-805h-258v-684q0 -43 51 -43q47 0 47 43v609h160v-609q0 -39 -19.5 -69.5t-49.5 -55.5l-166 -135q-20 -16 -29.5 -34.5t-9.5 -59.5q0 -29 9 -38t26 -9q18 0 27 9t9 38v37h125v-33q0 -84 -39.5 -116.5t-121.5 -32.5 q-80 0 -121 31.5t-41 105.5q0 76 57 119l115 79q-188 16 -189 209zM221 932h98v694q0 45 -47 45q-51 0 -51 -45v-694z" />
<glyph unicode="&#x119;" horiz-adv-x="542" d="M61 184v1393q0 209 209 209q96 0 152.5 -43t56.5 -115v-805h-258v-684q0 -43 51 -43q47 0 47 43v609h160v-609q0 -39 -19.5 -69.5t-49.5 -55.5l-166 -135q-20 -16 -29.5 -34.5t-9.5 -59.5q0 -29 9 -38t26 -9q18 0 27 9t9 38v37h125v-33q0 -84 -39.5 -116.5t-121.5 -32.5 q-80 0 -121 31.5t-41 105.5q0 76 57 119l115 79q-188 16 -189 209zM221 932h98v694q0 45 -47 45q-51 0 -51 -45v-694z" />
<glyph unicode="&#x11a;" horiz-adv-x="542" d="M61 162v1450q0 84 52.5 129t156.5 45q98 0 153.5 -43t55.5 -115v-805h-258v-684q0 -43 51 -43q47 0 47 43v609h160v-609q0 -78 -56 -121t-151 -43q-211 0 -211 187zM100 2097h92l82 -139l82 139h92l-119 -248h-112zM221 932h98v694q0 45 -47 45q-51 0 -51 -45v-694z" />
<glyph unicode="&#x11b;" horiz-adv-x="542" d="M61 162v1450q0 84 52.5 129t156.5 45q98 0 153.5 -43t55.5 -115v-805h-258v-684q0 -43 51 -43q47 0 47 43v609h160v-609q0 -78 -56 -121t-151 -43q-211 0 -211 187zM100 2097h92l82 -139l82 139h92l-119 -248h-112zM221 932h98v694q0 45 -47 45q-51 0 -51 -45v-694z" />
<glyph unicode="&#x11e;" horiz-adv-x="540" d="M63 139v520h152v-524q0 -47 51 -47t51 47v672q-39 -72 -143 -72q-111 0 -111 156v731q0 150 109 150q115 0 141 -93l6 80h156v-1620q0 -45 -17.5 -75.5t-45 -50t-62.5 -29t-67 -9.5q-119 0 -169.5 41t-50.5 123zM70 2097h96q0 -80 23.5 -136t83.5 -56q61 0 87.5 56 t26.5 136h92q0 -272 -206 -272q-203 0 -203 272zM215 915q0 -49 51 -49t51 49v674q0 47 -51 66q-51 0 -51 -49v-691z" />
<glyph unicode="&#x11f;" horiz-adv-x="540" d="M63 139v520h152v-524q0 -47 51 -47t51 47v672q-39 -72 -143 -72q-111 0 -111 156v731q0 150 109 150q115 0 141 -93l6 80h156v-1620q0 -45 -17.5 -75.5t-45 -50t-62.5 -29t-67 -9.5q-119 0 -169.5 41t-50.5 123zM70 2097h96q0 -80 23.5 -136t83.5 -56q61 0 87.5 56 t26.5 136h92q0 -272 -206 -272q-203 0 -203 272zM215 915q0 -49 51 -49t51 49v674q0 47 -51 66q-51 0 -51 -49v-691z" />
<glyph unicode="&#x120;" horiz-adv-x="540" d="M63 139v520h152v-524q0 -47 51 -47t51 47v672q-39 -72 -143 -72q-111 0 -111 156v731q0 150 109 150q115 0 141 -93l6 80h156v-1620q0 -45 -17.5 -75.5t-45 -50t-62.5 -29t-67 -9.5q-119 0 -169.5 41t-50.5 123zM199 1878v168h143v-168h-143zM215 915q0 -49 51 -49t51 49 v674q0 47 -51 66q-51 0 -51 -49v-691z" />
<glyph unicode="&#x121;" horiz-adv-x="540" d="M63 139v520h152v-524q0 -47 51 -47t51 47v672q-39 -72 -143 -72q-111 0 -111 156v731q0 150 109 150q115 0 141 -93l6 80h156v-1620q0 -45 -17.5 -75.5t-45 -50t-62.5 -29t-67 -9.5q-119 0 -169.5 41t-50.5 123zM199 1878v168h143v-168h-143zM215 915q0 -49 51 -49t51 49 v674q0 47 -51 66q-51 0 -51 -49v-691z" />
<glyph unicode="&#x122;" horiz-adv-x="540" d="M63 139v520h152v-524q0 -47 51 -47t51 47v672q-39 -72 -143 -72q-111 0 -111 156v731q0 150 109 150q115 0 141 -93l6 80h156v-1620q0 -45 -17.5 -75.5t-45 -50t-62.5 -29t-67 -9.5q-119 0 -169.5 41t-50.5 123zM181 -360l22 282h133l-61 -282h-94zM215 915q0 -49 51 -49 t51 49v674q0 47 -51 66q-51 0 -51 -49v-691z" />
<glyph unicode="&#x123;" horiz-adv-x="540" d="M63 139v520h152v-524q0 -47 51 -47t51 47v672q-39 -72 -143 -72q-111 0 -111 156v731q0 150 109 150q115 0 141 -93l6 80h156v-1620q0 -45 -17.5 -75.5t-45 -50t-62.5 -29t-67 -9.5q-119 0 -169.5 41t-50.5 123zM181 -360l22 282h133l-61 -282h-94zM215 915q0 -49 51 -49 t51 49v674q0 47 -51 66q-51 0 -51 -49v-691z" />
<glyph unicode="&#x126;" d="M63 0v1759h158v-346h90v346h158v-1759h-158v786h-90v-786h-158zM221 934h90v362h-90v-362z" />
<glyph unicode="&#x127;" d="M63 0v1759h158v-346h90v346h158v-1759h-158v786h-90v-786h-158zM221 934h90v362h-90v-362z" />
<glyph unicode="&#x12a;" horiz-adv-x="292" d="M-77 1921v82h456v-82h-456zM63 0v1759h158v-1759h-158z" />
<glyph unicode="&#x12b;" horiz-adv-x="292" d="M-77 1921v82h456v-82h-456zM63 0v1759h158v-1759h-158z" />
<glyph unicode="&#x12c;" horiz-adv-x="292" d="M-55 2097h96q0 -80 23.5 -136t83.5 -56q61 0 87.5 56t26.5 136h92q0 -272 -206 -272q-203 0 -203 272zM63 0v1759h158v-1759h-158z" />
<glyph unicode="&#x12d;" horiz-adv-x="292" d="M-55 2097h96q0 -80 23.5 -136t83.5 -56q61 0 87.5 56t26.5 136h92q0 -272 -206 -272q-203 0 -203 272zM63 0v1759h158v-1759h-158z" />
<glyph unicode="&#x12e;" horiz-adv-x="292" d="M-102 -223q0 35 13 65.5t44 53.5l108 71v1792h158v-1759l-160 -121q-20 -16 -28 -35.5t-8 -58.5q0 -29 9 -38t25 -9q18 0 27.5 9t9.5 38v37h125v-33q0 -84 -40 -116.5t-122 -32.5q-80 0 -120.5 31.5t-40.5 105.5z" />
<glyph unicode="&#x12f;" horiz-adv-x="292" d="M-102 -223q0 35 13 65.5t44 53.5l108 71v1792h158v-1759l-160 -121q-20 -16 -28 -35.5t-8 -58.5q0 -29 9 -38t25 -9q18 0 27.5 9t9.5 38v37h125v-33q0 -84 -40 -116.5t-122 -32.5q-80 0 -120.5 31.5t-40.5 105.5z" />
<glyph unicode="&#x130;" horiz-adv-x="292" d="M63 0v1759h158v-1759h-158zM76 1878v168h143v-168h-143z" />
<glyph unicode="&#x131;" horiz-adv-x="292" d="M63 0v1759h158v-1759h-158z" />
<glyph unicode="&#x132;" horiz-adv-x="579" d="M63 0v1759h158v-1759h-158zM305 0v119h19q49 0 49 47v1593h139v-1603q0 -86 -28.5 -121t-110.5 -35h-68z" />
<glyph unicode="&#x133;" horiz-adv-x="579" d="M63 0v1759h158v-1759h-158zM305 0v119h19q49 0 49 47v1593h139v-1603q0 -86 -28.5 -121t-110.5 -35h-68z" />
<glyph unicode="&#x136;" horiz-adv-x="530" d="M63 0v1759h162v-827l121 827h164l-148 -841l144 -918h-168l-113 874v-874h-162zM195 -360l22 282h133l-61 -282h-94z" />
<glyph unicode="&#x137;" horiz-adv-x="530" d="M63 0v1759h162v-827l121 827h164l-148 -841l144 -918h-168l-113 874v-874h-162zM195 -360l22 282h133l-61 -282h-94z" />
<glyph unicode="&#x139;" horiz-adv-x="421" d="M63 0v1759h158v-1616h191v-143h-349zM116 1849l52 248h176l-99 -248h-129z" />
<glyph unicode="&#x13a;" horiz-adv-x="421" d="M63 0v1759h158v-1616h191v-143h-349zM116 1849l52 248h176l-99 -248h-129z" />
<glyph unicode="&#x13b;" horiz-adv-x="421" d="M63 0v1759h158v-1616h191v-143h-349zM142 -360l22 282h133l-61 -282h-94z" />
<glyph unicode="&#x13c;" horiz-adv-x="421" d="M63 0v1759h158v-1616h191v-143h-349zM142 -360l22 282h133l-61 -282h-94z" />
<glyph unicode="&#x13d;" horiz-adv-x="421" d="M63 0v1759h158v-1616h191v-143h-349zM292 1360v399h119v-399h-119z" />
<glyph unicode="&#x13e;" horiz-adv-x="421" d="M63 0v1759h158v-1616h191v-143h-349zM292 1360v399h119v-399h-119z" />
<glyph unicode="&#x13f;" horiz-adv-x="421" d="M63 0v1759h158v-1616h191v-143h-349zM279 788v168h143v-168h-143z" />
<glyph unicode="&#x140;" horiz-adv-x="421" d="M63 0v1759h158v-1616h191v-143h-349zM279 788v168h143v-168h-143z" />
<glyph unicode="&#x141;" horiz-adv-x="421" d="M-10 739v113l73 35v872h158v-801l154 68v-113l-154 -69v-701h191v-143h-349v774z" />
<glyph unicode="&#x142;" horiz-adv-x="421" d="M-10 739v113l73 35v872h158v-801l154 68v-113l-154 -69v-701h191v-143h-349v774z" />
<glyph unicode="&#x143;" horiz-adv-x="524" d="M63 0v1759h146v-65q39 78 137 78q111 0 111 -146v-1626h-150v1604q0 49 -51 49q-41 0 -41 -49v-1604h-152zM213 1849l52 248h176l-99 -248h-129z" />
<glyph unicode="&#x144;" horiz-adv-x="524" d="M63 0v1759h146v-65q39 78 137 78q111 0 111 -146v-1626h-150v1604q0 49 -51 49q-41 0 -41 -49v-1604h-152zM213 1849l52 248h176l-99 -248h-129z" />
<glyph unicode="&#x145;" horiz-adv-x="524" d="M63 0v1759h146v-65q39 78 137 78q111 0 111 -146v-1626h-150v1604q0 49 -51 49q-41 0 -41 -49v-1604h-152zM193 -360l22 282h133l-61 -282h-94z" />
<glyph unicode="&#x146;" horiz-adv-x="524" d="M63 0v1759h146v-65q39 78 137 78q111 0 111 -146v-1626h-150v1604q0 49 -51 49q-41 0 -41 -49v-1604h-152zM193 -360l22 282h133l-61 -282h-94z" />
<glyph unicode="&#x147;" horiz-adv-x="524" d="M63 0v1759h146v-65q39 78 137 78q111 0 111 -146v-1626h-150v1604q0 49 -51 49q-41 0 -41 -49v-1604h-152zM90 2097h92l82 -139l82 139h92l-119 -248h-112z" />
<glyph unicode="&#x148;" horiz-adv-x="524" d="M63 0v1759h146v-65q39 78 137 78q111 0 111 -146v-1626h-150v1604q0 49 -51 49q-41 0 -41 -49v-1604h-152zM90 2097h92l82 -139l82 139h92l-119 -248h-112z" />
<glyph unicode="&#x14a;" horiz-adv-x="524" d="M63 0v1759h146v-65q39 78 137 78q111 0 111 -146v-1847q0 -76 -23.5 -107.5t-101.5 -31.5h-92v116q35 4 51 18.5t16 30.5v1799q0 49 -51 49q-41 0 -41 -49v-1604h-152z" />
<glyph unicode="&#x14b;" horiz-adv-x="524" d="M63 0v1759h146v-65q39 78 137 78q111 0 111 -146v-1847q0 -76 -23.5 -107.5t-101.5 -31.5h-92v116q35 4 51 18.5t16 30.5v1799q0 49 -51 49q-41 0 -41 -49v-1604h-152z" />
<glyph unicode="&#x14c;" d="M41 1921v82h456v-82h-456zM61 180v1401q0 205 205 205q207 0 207 -205v-1401q0 -205 -207 -205q-205 0 -205 205zM221 170q0 -61 45 -61q47 0 47 63v1427q0 59 -47 60q-45 0 -45 -60v-1429z" />
<glyph unicode="&#x14d;" d="M41 1921v82h456v-82h-456zM61 180v1401q0 205 205 205q207 0 207 -205v-1401q0 -205 -207 -205q-205 0 -205 205zM221 170q0 -61 45 -61q47 0 47 63v1427q0 59 -47 60q-45 0 -45 -60v-1429z" />
<glyph unicode="&#x14e;" d="M61 180v1401q0 205 205 205q207 0 207 -205v-1401q0 -205 -207 -205q-205 0 -205 205zM66 2097h96q0 -80 23.5 -136t83.5 -56q61 0 87.5 56t26.5 136h92q0 -272 -206 -272q-203 0 -203 272zM221 170q0 -61 45 -61q47 0 47 63v1427q0 59 -47 60q-45 0 -45 -60v-1429z" />
<glyph unicode="&#x14f;" d="M61 180v1401q0 205 205 205q207 0 207 -205v-1401q0 -205 -207 -205q-205 0 -205 205zM66 2097h96q0 -80 23.5 -136t83.5 -56q61 0 87.5 56t26.5 136h92q0 -272 -206 -272q-203 0 -203 272zM221 170q0 -61 45 -61q47 0 47 63v1427q0 59 -47 60q-45 0 -45 -60v-1429z" />
<glyph unicode="&#x150;" d="M61 180v1401q0 205 205 205q207 0 207 -205v-1401q0 -205 -207 -205q-205 0 -205 205zM100 1849l54 248h176l-101 -248h-129zM221 170q0 -61 45 -61q47 0 47 63v1427q0 59 -47 60q-45 0 -45 -60v-1429zM313 1849l52 248h176l-99 -248h-129z" />
<glyph unicode="&#x151;" d="M61 180v1401q0 205 205 205q207 0 207 -205v-1401q0 -205 -207 -205q-205 0 -205 205zM100 1849l54 248h176l-101 -248h-129zM221 170q0 -61 45 -61q47 0 47 63v1427q0 59 -47 60q-45 0 -45 -60v-1429zM313 1849l52 248h176l-99 -248h-129z" />
<glyph unicode="&#x152;" horiz-adv-x="796" d="M63 180v1401q0 205 205 205q39 0 71 -8.5t56 -22.5q25 14 56.5 22.5t72.5 8.5q96 0 152.5 -43t56.5 -115v-805h-258v-684q0 -43 51 -43q47 0 47 43v609h160v-609q0 -72 -57.5 -118t-149.5 -46q-78 0 -131 29q-51 -29 -127 -29q-205 0 -205 205zM223 170q0 -61 45 -61 q23 0 34 14t11 49v1425q0 61 -45 62q-45 0 -45 -60v-1429zM475 932h98v694q0 45 -47 45q-51 0 -51 -45v-694z" />
<glyph unicode="&#x153;" horiz-adv-x="796" d="M63 180v1401q0 205 205 205q39 0 71 -8.5t56 -22.5q25 14 56.5 22.5t72.5 8.5q96 0 152.5 -43t56.5 -115v-805h-258v-684q0 -43 51 -43q47 0 47 43v609h160v-609q0 -72 -57.5 -118t-149.5 -46q-78 0 -131 29q-51 -29 -127 -29q-205 0 -205 205zM223 170q0 -61 45 -61 q23 0 34 14t11 49v1425q0 61 -45 62q-45 0 -45 -60v-1429zM475 932h98v694q0 45 -47 45q-51 0 -51 -45v-694z" />
<glyph unicode="&#x154;" d="M63 0v1759h197q104 0 159.5 -47t55.5 -145v-467q0 -152 -158 -182q158 -12 158 -152v-573q0 -137 25 -193h-164q-23 45 -23 199v587q0 66 -92 66v-852h-158zM217 1849l52 248h176l-99 -248h-129zM221 983h35q57 0 57 72v514q0 68 -57 67h-35v-653z" />
<glyph unicode="&#x155;" d="M63 0v1759h197q104 0 159.5 -47t55.5 -145v-467q0 -152 -158 -182q158 -12 158 -152v-573q0 -137 25 -193h-164q-23 45 -23 199v587q0 66 -92 66v-852h-158zM217 1849l52 248h176l-99 -248h-129zM221 983h35q57 0 57 72v514q0 68 -57 67h-35v-653z" />
<glyph unicode="&#x156;" d="M63 0v1759h197q104 0 159.5 -47t55.5 -145v-467q0 -152 -158 -182q158 -12 158 -152v-573q0 -137 25 -193h-164q-23 45 -23 199v587q0 66 -92 66v-852h-158zM197 -360l22 282h133l-61 -282h-94zM221 983h35q57 0 57 72v514q0 68 -57 67h-35v-653z" />
<glyph unicode="&#x157;" d="M63 0v1759h197q104 0 159.5 -47t55.5 -145v-467q0 -152 -158 -182q158 -12 158 -152v-573q0 -137 25 -193h-164q-23 45 -23 199v587q0 66 -92 66v-852h-158zM197 -360l22 282h133l-61 -282h-94zM221 983h35q57 0 57 72v514q0 68 -57 67h-35v-653z" />
<glyph unicode="&#x158;" d="M63 0v1759h197q104 0 159.5 -47t55.5 -145v-467q0 -152 -158 -182q158 -12 158 -152v-573q0 -137 25 -193h-164q-23 45 -23 199v587q0 66 -92 66v-852h-158zM96 2097h92l82 -139l82 139h92l-119 -248h-112zM221 983h35q57 0 57 72v514q0 68 -57 67h-35v-653z" />
<glyph unicode="&#x159;" d="M63 0v1759h197q104 0 159.5 -47t55.5 -145v-467q0 -152 -158 -182q158 -12 158 -152v-573q0 -137 25 -193h-164q-23 45 -23 199v587q0 66 -92 66v-852h-158zM96 2097h92l82 -139l82 139h92l-119 -248h-112zM221 983h35q57 0 57 72v514q0 68 -57 67h-35v-653z" />
<glyph unicode="&#x15a;" horiz-adv-x="524" d="M55 180v371h160v-377q0 -66 45 -65q47 0 47 65v150q0 49 -4 102t-24 137q-39 166 -90.5 312.5t-90.5 308.5q-29 111 -36 183.5t-7 131.5v82q0 205 205 205t205 -205v-340h-158v352q0 66 -47 66q-45 0 -45 -53v-115q0 -41 4 -97.5t27 -148.5q20 -84 45.5 -164t51.5 -158.5 t49.5 -158.5t41.5 -164q31 -147 31 -281v-139q0 -205 -205 -205t-205 205zM213 1849l52 248h176l-99 -248h-129z" />
<glyph unicode="&#x15b;" horiz-adv-x="524" d="M55 180v371h160v-377q0 -66 45 -65q47 0 47 65v150q0 49 -4 102t-24 137q-39 166 -90.5 312.5t-90.5 308.5q-29 111 -36 183.5t-7 131.5v82q0 205 205 205t205 -205v-340h-158v352q0 66 -47 66q-45 0 -45 -53v-115q0 -41 4 -97.5t27 -148.5q20 -84 45.5 -164t51.5 -158.5 t49.5 -158.5t41.5 -164q31 -147 31 -281v-139q0 -205 -205 -205t-205 205zM213 1849l52 248h176l-99 -248h-129z" />
<glyph unicode="&#x15e;" horiz-adv-x="524" d="M55 180v371h160v-377q0 -66 45 -65q47 0 47 65v150q0 49 -4 102t-24 137q-39 166 -90.5 312.5t-90.5 308.5q-29 111 -36 183.5t-7 131.5v82q0 205 205 205t205 -205v-340h-158v352q0 66 -47 66q-45 0 -45 -53v-115q0 -41 4 -97.5t27 -148.5q20 -84 45.5 -164t51.5 -158.5 t49.5 -158.5t41.5 -164q31 -147 31 -281v-139q0 -205 -205 -205t-205 205zM170 -360l22 282h133l-61 -282h-94z" />
<glyph unicode="&#x15f;" horiz-adv-x="524" d="M55 180v371h160v-377q0 -66 45 -65q47 0 47 65v150q0 49 -4 102t-24 137q-39 166 -90.5 312.5t-90.5 308.5q-29 111 -36 183.5t-7 131.5v82q0 205 205 205t205 -205v-340h-158v352q0 66 -47 66q-45 0 -45 -53v-115q0 -41 4 -97.5t27 -148.5q20 -84 45.5 -164t51.5 -158.5 t49.5 -158.5t41.5 -164q31 -147 31 -281v-139q0 -205 -205 -205t-205 205zM170 -360l22 282h133l-61 -282h-94z" />
<glyph unicode="&#x160;" horiz-adv-x="524" d="M55 180v371h160v-377q0 -66 45 -65q47 0 47 65v150q0 49 -4 102t-24 137q-39 166 -90.5 312.5t-90.5 308.5q-29 111 -36 183.5t-7 131.5v82q0 205 205 205t205 -205v-340h-158v352q0 66 -47 66q-45 0 -45 -53v-115q0 -41 4 -97.5t27 -148.5q20 -84 45.5 -164t51.5 -158.5 t49.5 -158.5t41.5 -164q31 -147 31 -281v-139q0 -205 -205 -205t-205 205zM90 2097h92l82 -139l82 139h92l-119 -248h-112z" />
<glyph unicode="&#x161;" horiz-adv-x="524" d="M55 180v371h160v-377q0 -66 45 -65q47 0 47 65v150q0 49 -4 102t-24 137q-39 166 -90.5 312.5t-90.5 308.5q-29 111 -36 183.5t-7 131.5v82q0 205 205 205t205 -205v-340h-158v352q0 66 -47 66q-45 0 -45 -53v-115q0 -41 4 -97.5t27 -148.5q20 -84 45.5 -164t51.5 -158.5 t49.5 -158.5t41.5 -164q31 -147 31 -281v-139q0 -205 -205 -205t-205 205zM90 2097h92l82 -139l82 139h92l-119 -248h-112z" />
<glyph unicode="&#x162;" horiz-adv-x="477" d="M20 1622v137h435v-137h-138v-1622h-157v1622h-140zM154 -360l22 282h133l-61 -282h-94z" />
<glyph unicode="&#x163;" horiz-adv-x="477" d="M20 1622v137h435v-137h-138v-1622h-157v1622h-140zM154 -360l22 282h133l-61 -282h-94z" />
<glyph unicode="&#x164;" horiz-adv-x="477" d="M20 1622v137h435v-137h-138v-1622h-157v1622h-140zM68 2097h92l82 -139l82 139h92l-119 -248h-112z" />
<glyph unicode="&#x165;" horiz-adv-x="477" d="M20 1622v137h435v-137h-138v-1622h-157v1622h-140zM68 2097h92l82 -139l82 139h92l-119 -248h-112z" />
<glyph unicode="&#x166;" horiz-adv-x="477" d="M20 1622v137h435v-137h-138v-528h115v-115h-115v-979h-157v979h-117v115h117v528h-140z" />
<glyph unicode="&#x167;" horiz-adv-x="477" d="M20 1622v137h435v-137h-138v-528h115v-115h-115v-979h-157v979h-117v115h117v528h-140z" />
<glyph unicode="&#x168;" horiz-adv-x="522" d="M57 180v1579h162v-1585q0 -66 43 -65q49 0 49 65v1585h158v-1579q0 -205 -207 -205q-205 0 -205 205zM57 1878q2 201 123 201q14 0 33.5 -5.5t39.5 -15.5q39 -23 77 -48t59 -25q23 0 28.5 18t8.5 76h43q0 -98 -34 -150.5t-87 -52.5q-12 0 -30.5 3t-37.5 13 q-18 10 -38.5 23.5t-39 26t-35 20.5t-28.5 8q-23 0 -30 -20.5t-7 -71.5h-45z" />
<glyph unicode="&#x169;" horiz-adv-x="522" d="M57 180v1579h162v-1585q0 -66 43 -65q49 0 49 65v1585h158v-1579q0 -205 -207 -205q-205 0 -205 205zM57 1878q2 201 123 201q14 0 33.5 -5.5t39.5 -15.5q39 -23 77 -48t59 -25q23 0 28.5 18t8.5 76h43q0 -98 -34 -150.5t-87 -52.5q-12 0 -30.5 3t-37.5 13 q-18 10 -38.5 23.5t-39 26t-35 20.5t-28.5 8q-23 0 -30 -20.5t-7 -71.5h-45z" />
<glyph unicode="&#x16a;" horiz-adv-x="522" d="M35 1921v82h456v-82h-456zM57 180v1579h162v-1585q0 -66 43 -65q49 0 49 65v1585h158v-1579q0 -205 -207 -205q-205 0 -205 205z" />
<glyph unicode="&#x16b;" horiz-adv-x="522" d="M35 1921v82h456v-82h-456zM57 180v1579h162v-1585q0 -66 43 -65q49 0 49 65v1585h158v-1579q0 -205 -207 -205q-205 0 -205 205z" />
<glyph unicode="&#x16c;" horiz-adv-x="522" d="M57 180v1579h162v-1585q0 -66 43 -65q49 0 49 65v1585h158v-1579q0 -205 -207 -205q-205 0 -205 205zM57 2097h96q0 -80 23.5 -136t83.5 -56q61 0 87.5 56t26.5 136h92q0 -272 -206 -272q-203 0 -203 272z" />
<glyph unicode="&#x16d;" horiz-adv-x="522" d="M57 180v1579h162v-1585q0 -66 43 -65q49 0 49 65v1585h158v-1579q0 -205 -207 -205q-205 0 -205 205zM57 2097h96q0 -80 23.5 -136t83.5 -56q61 0 87.5 56t26.5 136h92q0 -272 -206 -272q-203 0 -203 272z" />
<glyph unicode="&#x16e;" horiz-adv-x="522" d="M57 180v1579h162v-1585q0 -66 43 -65q49 0 49 65v1585h158v-1579q0 -205 -207 -205q-205 0 -205 205zM120 1958q0 139 134 139q135 0 135 -139q0 -66 -34.5 -102.5t-100.5 -36.5q-68 0 -101 36.5t-33 102.5zM176 1960q0 -88 78 -88q80 0 79 88q0 88 -79 88q-78 0 -78 -88 z" />
<glyph unicode="&#x16f;" horiz-adv-x="522" d="M57 180v1579h162v-1585q0 -66 43 -65q49 0 49 65v1585h158v-1579q0 -205 -207 -205q-205 0 -205 205zM120 1958q0 139 134 139q135 0 135 -139q0 -66 -34.5 -102.5t-100.5 -36.5q-68 0 -101 36.5t-33 102.5zM176 1960q0 -88 78 -88q80 0 79 88q0 88 -79 88q-78 0 -78 -88 z" />
<glyph unicode="&#x170;" horiz-adv-x="522" d="M57 180v1579h162v-1585q0 -66 43 -65q49 0 49 65v1585h158v-1579q0 -205 -207 -205q-205 0 -205 205zM73 1849l54 248h176l-101 -248h-129zM286 1849l52 248h176l-99 -248h-129z" />
<glyph unicode="&#x171;" horiz-adv-x="522" d="M57 180v1579h162v-1585q0 -66 43 -65q49 0 49 65v1585h158v-1579q0 -205 -207 -205q-205 0 -205 205zM73 1849l54 248h176l-101 -248h-129zM286 1849l52 248h176l-99 -248h-129z" />
<glyph unicode="&#x172;" horiz-adv-x="522" d="M55 -223q0 35 14.5 65.5t45.5 53.5l121 84q-178 12 -179 200v1579h162v-1585q0 -66 43 -65q49 0 49 65v1585h158v-1579q0 -117 -63 -164l-185 -137q-23 -14 -31 -34.5t-8 -59.5q0 -29 9.5 -38t27.5 -9t27.5 9t9.5 38v37h125v-33q0 -84 -41 -116.5t-121 -32.5t-122 31.5 t-42 105.5z" />
<glyph unicode="&#x173;" horiz-adv-x="522" d="M55 -223q0 35 14.5 65.5t45.5 53.5l121 84q-178 12 -179 200v1579h162v-1585q0 -66 43 -65q49 0 49 65v1585h158v-1579q0 -117 -63 -164l-185 -137q-23 -14 -31 -34.5t-8 -59.5q0 -29 9.5 -38t27.5 -9t27.5 9t9.5 38v37h125v-33q0 -84 -41 -116.5t-121 -32.5t-122 31.5 t-42 105.5z" />
<glyph unicode="&#x174;" horiz-adv-x="901" d="M33 1759h166l53 -1526l102 1526h209l103 -1526l53 1526h158l-97 -1759h-229l-96 1407l-93 -1407h-227zM274 1849l119 248h112l117 -248h-92l-82 140l-82 -140h-92z" />
<glyph unicode="&#x175;" horiz-adv-x="901" d="M33 1759h166l53 -1526l102 1526h209l103 -1526l53 1526h158l-97 -1759h-229l-96 1407l-93 -1407h-227zM274 1849l119 248h112l117 -248h-92l-82 140l-82 -140h-92z" />
<glyph unicode="&#x176;" horiz-adv-x="546" d="M61 180v467h162v-473q0 -33 13.5 -49t35.5 -16q49 0 50 65v598q-23 -25 -53.5 -37t-59.5 -12q-66 0 -107 44t-41 107v885h162v-831q0 -31 13.5 -46.5t29.5 -15.5q25 0 40.5 15.5t15.5 46.5v831h159v-1579q0 -205 -215 -205q-205 0 -205 205zM102 1849l119 248h112 l117 -248h-92l-82 140l-82 -140h-92z" />
<glyph unicode="&#x177;" horiz-adv-x="546" d="M61 180v467h162v-473q0 -33 13.5 -49t35.5 -16q49 0 50 65v598q-23 -25 -53.5 -37t-59.5 -12q-66 0 -107 44t-41 107v885h162v-831q0 -31 13.5 -46.5t29.5 -15.5q25 0 40.5 15.5t15.5 46.5v831h159v-1579q0 -205 -215 -205q-205 0 -205 205zM102 1849l119 248h112 l117 -248h-92l-82 140l-82 -140h-92z" />
<glyph unicode="&#x178;" horiz-adv-x="546" d="M61 180v467h162v-473q0 -33 13.5 -49t35.5 -16q49 0 50 65v598q-23 -25 -53.5 -37t-59.5 -12q-66 0 -107 44t-41 107v885h162v-831q0 -31 13.5 -46.5t29.5 -15.5q25 0 40.5 15.5t15.5 46.5v831h159v-1579q0 -205 -215 -205q-205 0 -205 205zM91 1878v168h143v-168h-143z M322 1878v168h141v-168h-141z" />
<glyph unicode="&#x179;" horiz-adv-x="411" d="M33 0v86l182 1536h-182v137h350v-102l-178 -1520h184v-137h-356zM155 1849l52 248h176l-99 -248h-129z" />
<glyph unicode="&#x17a;" horiz-adv-x="411" d="M33 0v86l182 1536h-182v137h350v-102l-178 -1520h184v-137h-356zM155 1849l52 248h176l-99 -248h-129z" />
<glyph unicode="&#x17b;" horiz-adv-x="411" d="M33 0v86l182 1536h-182v137h350v-102l-178 -1520h184v-137h-356zM136 1878v168h143v-168h-143z" />
<glyph unicode="&#x17c;" horiz-adv-x="411" d="M33 0v86l182 1536h-182v137h350v-102l-178 -1520h184v-137h-356zM136 1878v168h143v-168h-143z" />
<glyph unicode="&#x17d;" horiz-adv-x="411" d="M33 0v86l182 1536h-182v137h350v-102l-178 -1520h184v-137h-356zM35 2097h92l82 -139l82 139h92l-119 -248h-112z" />
<glyph unicode="&#x17e;" horiz-adv-x="411" d="M33 0v86l182 1536h-182v137h350v-102l-178 -1520h184v-137h-356zM35 2097h92l82 -139l82 139h92l-119 -248h-112z" />
<glyph unicode="&#x192;" horiz-adv-x="415" d="M-16 -244q66 0 71 49l82 867h-78v121h88l80 827q6 80 34 109.5t106 29.5h69v-119q-41 -4 -55 -14t-16 -33l-76 -800h67v-121h-82l-86 -893q-6 -76 -33.5 -107.5t-103.5 -31.5h-67v116z" />
<glyph unicode="&#x218;" horiz-adv-x="524" d="M55 180v371h160v-377q0 -66 45 -65q47 0 47 65v150q0 49 -4 102t-24 137q-39 166 -90.5 312.5t-90.5 308.5q-29 111 -36 183.5t-7 131.5v82q0 205 205 205t205 -205v-340h-158v352q0 66 -47 66q-45 0 -45 -53v-115q0 -41 4 -97.5t27 -148.5q20 -84 45.5 -164t51.5 -158.5 t49.5 -158.5t41.5 -164q31 -147 31 -281v-139q0 -205 -205 -205t-205 205zM170 -360l22 282h133l-61 -282h-94z" />
<glyph unicode="&#x219;" horiz-adv-x="524" d="M55 180v371h160v-377q0 -66 45 -65q47 0 47 65v150q0 49 -4 102t-24 137q-39 166 -90.5 312.5t-90.5 308.5q-29 111 -36 183.5t-7 131.5v82q0 205 205 205t205 -205v-340h-158v352q0 66 -47 66q-45 0 -45 -53v-115q0 -41 4 -97.5t27 -148.5q20 -84 45.5 -164t51.5 -158.5 t49.5 -158.5t41.5 -164q31 -147 31 -281v-139q0 -205 -205 -205t-205 205zM170 -360l22 282h133l-61 -282h-94z" />
<glyph unicode="&#x21a;" horiz-adv-x="477" d="M20 1622v137h435v-137h-138v-1622h-157v1622h-140zM154 -360l22 282h133l-61 -282h-94z" />
<glyph unicode="&#x21b;" horiz-adv-x="477" d="M20 1622v137h435v-137h-138v-1622h-157v1622h-140zM154 -360l22 282h133l-61 -282h-94z" />
<glyph unicode="&#x2c6;" horiz-adv-x="608" d="M129 1849l119 248h112l117 -248h-92l-82 140l-82 -140h-92z" />
<glyph unicode="&#x2c7;" horiz-adv-x="608" d="M129 2097h92l82 -139l82 139h92l-119 -248h-112z" />
<glyph unicode="&#x2d8;" horiz-adv-x="659" d="M123 2097h96q0 -80 23.5 -136t83.5 -56q61 0 87.5 56t26.5 136h92q0 -272 -206 -272q-203 0 -203 272z" />
<glyph unicode="&#x2d9;" horiz-adv-x="358" d="M109 1878v168h143v-168h-143z" />
<glyph unicode="&#x2da;" horiz-adv-x="491" d="M106 1958q0 139 134 139q135 0 135 -139q0 -66 -34.5 -102.5t-100.5 -36.5q-68 0 -101 36.5t-33 102.5zM162 1960q0 -88 78 -88q80 0 79 88q0 88 -79 88q-78 0 -78 -88z" />
<glyph unicode="&#x2db;" horiz-adv-x="532" d="M143 -223q0 35 14.5 65.5t45.5 53.5l157 104h109l-160 -121q-23 -16 -31 -35.5t-8 -58.5q0 -29 9.5 -38t27.5 -9t27.5 9t9.5 38v37h125v-33q0 -84 -41 -116.5t-121 -32.5t-122 31.5t-42 105.5z" />
<glyph unicode="&#x2dc;" horiz-adv-x="659" d="M123 1878q2 201 123 201q14 0 33.5 -5.5t39.5 -15.5q39 -23 77 -48t59 -25q23 0 28.5 18t8.5 76h43q0 -98 -34 -150.5t-87 -52.5q-12 0 -30.5 3t-37.5 13q-18 10 -38.5 23.5t-39 26t-35 20.5t-28.5 8q-23 0 -30 -20.5t-7 -71.5h-45z" />
<glyph unicode="&#x2dd;" horiz-adv-x="479" d="M14 1849l54 248h176l-101 -248h-129zM227 1849l52 248h176l-99 -248h-129z" />
<glyph unicode="&#x3a9;" d="M35 0v143h90v301q-66 49 -66 166v971q0 205 207 205t207 -205v-971q0 -117 -65 -166v-301h90v-143h-203v545q18 18 18 57v997q0 59 -47 60q-47 0 -47 -60v-997q0 -39 19 -57v-545h-203z" />
<glyph unicode="&#x3c0;" d="M63 0v1370h406v-1370h-158v1223h-90v-1223h-158z" />
<glyph unicode="&#x401;" horiz-adv-x="542" d="M61 162v1450q0 84 52.5 129t156.5 45q98 0 153.5 -43t55.5 -115v-805h-258v-684q0 -43 51 -43q47 0 47 43v609h160v-609q0 -78 -56 -121t-151 -43q-211 0 -211 187zM86 1878v168h143v-168h-143zM221 932h98v694q0 45 -47 45q-51 0 -51 -45v-694zM317 1878v168h141v-168 h-141z" />
<glyph unicode="&#x403;" horiz-adv-x="415" d="M63 0v1759h345v-143h-187v-1616h-158zM137 1849l52 248h176l-99 -248h-129z" />
<glyph unicode="&#x404;" horiz-adv-x="532" d="M61 180v1401q0 205 205 205q203 0 203 -205v-537h-158v549q0 63 -45 64q-45 0 -45 -64v-626h90v-138h-90v-655q0 -66 45 -65q45 0 45 65v578h158v-572q0 -205 -203 -205q-205 0 -205 205z" />
<glyph unicode="&#x405;" horiz-adv-x="524" d="M55 180v371h160v-377q0 -66 45 -65q47 0 47 65v150q0 49 -4 102t-24 137q-39 166 -90.5 312.5t-90.5 308.5q-29 111 -36 183.5t-7 131.5v82q0 205 205 205t205 -205v-340h-158v352q0 66 -47 66q-45 0 -45 -53v-115q0 -41 4 -97.5t27 -148.5q20 -84 45.5 -164t51.5 -158.5 t49.5 -158.5t41.5 -164q31 -147 31 -281v-139q0 -205 -205 -205t-205 205z" />
<glyph unicode="&#x406;" horiz-adv-x="292" d="M63 0v1759h158v-1759h-158z" />
<glyph unicode="&#x407;" horiz-adv-x="292" d="M-38 1878v168h143v-168h-143zM63 0v1759h158v-1759h-158zM193 1878v168h141v-168h-141z" />
<glyph unicode="&#x408;" horiz-adv-x="288" d="M12 0v119h19q49 0 49 47v1593h139v-1603q0 -86 -28.5 -121t-110.5 -35h-68z" />
<glyph unicode="&#x409;" horiz-adv-x="763" d="M14 0v133q49 0 49 66v1560h406v-753q143 0 197.5 -45.5t54.5 -151.5v-616q0 -193 -223 -193h-187v1612h-90v-1407q0 -205 -207 -205zM469 123h33q59 0 59 70v616q0 70 -59 70h-33v-756z" />
<glyph unicode="&#x40c;" horiz-adv-x="530" d="M63 0v1759h162v-827l121 827h164l-148 -841l144 -918h-168l-113 874v-874h-162zM206 1849l52 248h176l-99 -248h-129z" />
<glyph unicode="&#x410;" horiz-adv-x="528" d="M61 135v645q0 66 123 144q61 39 92 82t31 86v542q0 45 -51 45t-51 -45v-571h-144v557q0 166 195 166q203 0 203 -166v-1569q0 -14 1 -27.5t5 -23.5h-152q0 10 -1 27.5t-3 40.5q-39 -80 -108 -80q-59 0 -99.5 34.5t-40.5 112.5zM205 152q0 -47 51 -48q27 0 39 15.5 t12 38.5v743q-35 -23 -55.5 -37t-30.5 -26.5t-13 -24.5t-3 -29v-632z" />
<glyph unicode="&#x411;" horiz-adv-x="495" d="M63 0v1759h345v-143h-187v-610q143 0 198.5 -45.5t55.5 -151.5v-616q0 -193 -223 -193h-189zM221 123h35q57 0 57 70v616q0 70 -57 70h-35v-756z" />
<glyph unicode="&#x412;" horiz-adv-x="538" d="M63 0v1759h189q223 0 223 -192v-537q0 -133 -158 -160v-6q158 -18 158 -149v-522q0 -193 -223 -193h-189zM221 131h35q57 0 57 70v534q0 68 -57 68h-35v-672zM221 932h35q57 0 57 69v568q0 70 -57 69h-35v-706z" />
<glyph unicode="&#x413;" horiz-adv-x="415" d="M63 0v1759h345v-143h-187v-1616h-158z" />
<glyph unicode="&#x414;" horiz-adv-x="624" d="M8 137h37q49 0 49 66v1556h404v-1622h118v-293h-118v156h-371v-156h-119v293zM166 137h176v1475h-90v-1297q0 -131 -86 -178z" />
<glyph unicode="&#x415;" horiz-adv-x="542" d="M61 162v1450q0 84 52.5 129t156.5 45q98 0 153.5 -43t55.5 -115v-805h-258v-684q0 -43 51 -43q47 0 47 43v609h160v-609q0 -78 -56 -121t-151 -43q-211 0 -211 187zM221 932h98v694q0 45 -47 45q-51 0 -51 -45v-694z" />
<glyph unicode="&#x416;" horiz-adv-x="847" d="M63 1759h164l121 -827v827h162v-827l119 827h164l-146 -841l141 -918h-167l-111 874v-874h-162v874l-112 -874h-166l141 918z" />
<glyph unicode="&#x417;" horiz-adv-x="530" d="M61 180v506h160v-512q0 -66 45 -65q43 0 43 65v502q0 59 -88 88v123q88 37 88 92v614q0 66 -43 66q-45 0 -45 -66v-618h-160v606q0 205 205 205q201 0 201 -205v-586q0 -152 -119 -166q70 -10 94.5 -40.5t24.5 -102.5v-506q0 -205 -201 -205q-205 0 -205 205z" />
<glyph unicode="&#x418;" d="M63 0v1759h158v-1114l90 1114h158v-1759h-158v1073l-90 -1073h-158z" />
<glyph unicode="&#x419;" d="M57 2097h96q0 -80 23.5 -136t83.5 -56q61 0 87.5 56t26.5 136h92q0 -272 -206 -272q-203 0 -203 272zM63 0v1759h158v-1114l90 1114h158v-1759h-158v1073l-90 -1073h-158z" />
<glyph unicode="&#x41a;" horiz-adv-x="530" d="M63 0v1759h162v-827l121 827h164l-148 -841l144 -918h-168l-113 874v-874h-162z" />
<glyph unicode="&#x41b;" d="M14 0v133q49 0 49 66v1560h406v-1759h-158v1612h-90v-1407q0 -205 -207 -205z" />
<glyph unicode="&#x41c;" horiz-adv-x="813" d="M63 0v1759h269l78 -1526l77 1526h267v-1759h-144v850v696h-6l-82 -1546h-227l-80 1546h6v-696v-850h-158z" />
<glyph unicode="&#x41d;" d="M63 0v1759h158v-825h90v825h158v-1759h-158v786h-90v-786h-158z" />
<glyph unicode="&#x41e;" d="M61 180v1401q0 205 205 205q207 0 207 -205v-1401q0 -205 -207 -205q-205 0 -205 205zM221 170q0 -61 45 -61q47 0 47 63v1427q0 59 -47 60q-45 0 -45 -60v-1429z" />
<glyph unicode="&#x41f;" d="M63 0v1759h406v-1759h-158v1612h-90v-1612h-158z" />
<glyph unicode="&#x420;" horiz-adv-x="495" d="M63 0v1759h189q223 0 223 -192v-617q0 -106 -55 -151t-199 -45v-754h-158zM221 881h35q57 0 57 69v617q0 70 -57 69h-35v-755z" />
<glyph unicode="&#x421;" horiz-adv-x="532" d="M61 180v1401q0 205 205 205q203 0 203 -205v-537h-158v549q0 63 -45 64q-45 0 -45 -64v-1419q0 -66 45 -65q45 0 45 65v612h158v-606q0 -205 -203 -205q-205 0 -205 205z" />
<glyph unicode="&#x422;" horiz-adv-x="477" d="M20 1622v137h435v-137h-138v-1622h-157v1622h-140z" />
<glyph unicode="&#x423;" horiz-adv-x="546" d="M61 180v467h162v-473q0 -33 13.5 -49t35.5 -16q49 0 50 65v598q-23 -25 -53.5 -37t-59.5 -12q-66 0 -107 44t-41 107v885h162v-831q0 -31 13.5 -46.5t29.5 -15.5q25 0 40.5 15.5t15.5 46.5v831h159v-1579q0 -205 -215 -205q-205 0 -205 205z" />
<glyph unicode="&#x424;" horiz-adv-x="796" d="M63 526v832q0 193 226 192h30v209h158v-209h33q223 0 223 -192v-832q0 -109 -55 -151.5t-199 -42.5v-332h-162v332q-143 0 -198.5 43t-55.5 151zM223 526q0 -70 60 -69h34v973h-34q-59 0 -60 -72v-832zM479 457h35q59 0 59 69v832q0 72 -59 72h-35v-973z" />
<glyph unicode="&#x425;" horiz-adv-x="557" d="M29 0l170 918l-164 841h190l62 -469l73 469h154l-162 -813l174 -946h-172l-94 614l-100 -614h-131z" />
<glyph unicode="&#x426;" d="M63 0v1759h158v-1612h90v1612h158v-1601h102v-348h-143v190h-365z" />
<glyph unicode="&#x427;" horiz-adv-x="546" d="M61 874v885h170v-831q0 -61 35 -62q47 0 47 62v831h168v-1759h-168v772q-49 -49 -104 -49q-66 0 -107 44t-41 107z" />
<glyph unicode="&#x428;" horiz-adv-x="780" d="M63 0v1759h158v-1612h90v1612h158v-1612h90v1612h156v-1759h-652z" />
<glyph unicode="&#x429;" horiz-adv-x="780" d="M63 0v1759h158v-1612h90v1612h158v-1612h90v1612h156v-1601h104v-348h-145v190h-611z" />
<glyph unicode="&#x42a;" horiz-adv-x="495" d="M-33 1645v114h254v-753q143 0 198.5 -45.5t55.5 -151.5v-616q0 -193 -223 -193h-189v1645h-96zM221 123h35q57 0 57 70v616q0 70 -57 70h-35v-756z" />
<glyph unicode="&#x42b;" horiz-adv-x="759" d="M63 0v1759h158v-753q143 0 198.5 -45.5t55.5 -151.5v-616q0 -193 -223 -193h-189zM221 123h35q57 0 57 70v616q0 70 -57 70h-35v-756zM539 0v1759h157v-1759h-157z" />
<glyph unicode="&#x42c;" horiz-adv-x="495" d="M63 0v1759h158v-753q143 0 198.5 -45.5t55.5 -151.5v-616q0 -193 -223 -193h-189zM221 123h35q57 0 57 70v616q0 70 -57 70h-35v-756z" />
<glyph unicode="&#x42d;" horiz-adv-x="532" d="M61 180v572h158v-578q0 -66 45 -65q45 0 45 65v655h-90v138h90v626q0 63 -45 64q-45 0 -45 -64v-549h-158v537q0 205 203 205q205 0 205 -205v-1401q0 -205 -205 -205q-203 0 -203 205z" />
<glyph unicode="&#x42e;" horiz-adv-x="782" d="M63 0v1759h158v-825h86v647q0 205 205 205t205 -205v-1401q0 -205 -205 -205t-205 205v606h-86v-786h-158zM467 170q0 -61 45 -61q47 0 47 63v1427q0 59 -47 60q-45 0 -45 -60v-1429z" />
<glyph unicode="&#x42f;" d="M41 0q27 59 27 193v573q0 139 155 152q-156 31 -155 182v467q0 193 223 192h186v-1759h-158v852q-92 0 -92 -66v-587q0 -152 -20 -199h-166zM227 1055q0 -72 60 -72h32v653h-32q-59 0 -60 -67v-514z" />
<glyph unicode="&#x430;" horiz-adv-x="528" d="M61 135v645q0 66 123 144q61 39 92 82t31 86v542q0 45 -51 45t-51 -45v-571h-144v557q0 166 195 166q203 0 203 -166v-1569q0 -14 1 -27.5t5 -23.5h-152q0 10 -1 27.5t-3 40.5q-39 -80 -108 -80q-59 0 -99.5 34.5t-40.5 112.5zM205 152q0 -47 51 -48q27 0 39 15.5 t12 38.5v743q-35 -23 -55.5 -37t-30.5 -26.5t-13 -24.5t-3 -29v-632z" />
<glyph unicode="&#x431;" horiz-adv-x="495" d="M63 0v1759h345v-143h-187v-610q143 0 198.5 -45.5t55.5 -151.5v-616q0 -193 -223 -193h-189zM221 123h35q57 0 57 70v616q0 70 -57 70h-35v-756z" />
<glyph unicode="&#x432;" horiz-adv-x="538" d="M63 0v1759h189q223 0 223 -192v-537q0 -133 -158 -160v-6q158 -18 158 -149v-522q0 -193 -223 -193h-189zM221 131h35q57 0 57 70v534q0 68 -57 68h-35v-672zM221 932h35q57 0 57 69v568q0 70 -57 69h-35v-706z" />
<glyph unicode="&#x433;" horiz-adv-x="415" d="M63 0v1759h345v-143h-187v-1616h-158z" />
<glyph unicode="&#x434;" horiz-adv-x="624" d="M8 137h37q49 0 49 66v1556h404v-1622h118v-293h-118v156h-371v-156h-119v293zM166 137h176v1475h-90v-1297q0 -131 -86 -178z" />
<glyph unicode="&#x435;" horiz-adv-x="542" d="M61 162v1450q0 84 52.5 129t156.5 45q98 0 153.5 -43t55.5 -115v-805h-258v-684q0 -43 51 -43q47 0 47 43v609h160v-609q0 -78 -56 -121t-151 -43q-211 0 -211 187zM221 932h98v694q0 45 -47 45q-51 0 -51 -45v-694z" />
<glyph unicode="&#x436;" horiz-adv-x="847" d="M63 1759h164l121 -827v827h162v-827l119 827h164l-146 -841l141 -918h-167l-111 874v-874h-162v874l-112 -874h-166l141 918z" />
<glyph unicode="&#x437;" horiz-adv-x="530" d="M61 180v506h160v-512q0 -66 45 -65q43 0 43 65v502q0 59 -88 88v123q88 37 88 92v614q0 66 -43 66q-45 0 -45 -66v-618h-160v606q0 205 205 205q201 0 201 -205v-586q0 -152 -119 -166q70 -10 94.5 -40.5t24.5 -102.5v-506q0 -205 -201 -205q-205 0 -205 205z" />
<glyph unicode="&#x438;" d="M63 0v1759h158v-1114l90 1114h158v-1759h-158v1073l-90 -1073h-158z" />
<glyph unicode="&#x439;" d="M57 2097h96q0 -80 23.5 -136t83.5 -56q61 0 87.5 56t26.5 136h92q0 -272 -206 -272q-203 0 -203 272zM63 0v1759h158v-1114l90 1114h158v-1759h-158v1073l-90 -1073h-158z" />
<glyph unicode="&#x43a;" horiz-adv-x="530" d="M63 0v1759h162v-827l121 827h164l-148 -841l144 -918h-168l-113 874v-874h-162z" />
<glyph unicode="&#x43b;" d="M14 0v133q49 0 49 66v1560h406v-1759h-158v1612h-90v-1407q0 -205 -207 -205z" />
<glyph unicode="&#x43c;" horiz-adv-x="813" d="M63 0v1759h269l78 -1526l77 1526h267v-1759h-144v850v696h-6l-82 -1546h-227l-80 1546h6v-696v-850h-158z" />
<glyph unicode="&#x43d;" d="M63 0v1759h158v-825h90v825h158v-1759h-158v786h-90v-786h-158z" />
<glyph unicode="&#x43e;" d="M61 180v1401q0 205 205 205q207 0 207 -205v-1401q0 -205 -207 -205q-205 0 -205 205zM221 170q0 -61 45 -61q47 0 47 63v1427q0 59 -47 60q-45 0 -45 -60v-1429z" />
<glyph unicode="&#x43f;" d="M63 0v1759h406v-1759h-158v1612h-90v-1612h-158z" />
<glyph unicode="&#x440;" horiz-adv-x="495" d="M63 0v1759h189q223 0 223 -192v-617q0 -106 -55 -151t-199 -45v-754h-158zM221 881h35q57 0 57 69v617q0 70 -57 69h-35v-755z" />
<glyph unicode="&#x441;" horiz-adv-x="532" d="M61 180v1401q0 205 205 205q203 0 203 -205v-537h-158v549q0 63 -45 64q-45 0 -45 -64v-1419q0 -66 45 -65q45 0 45 65v612h158v-606q0 -205 -203 -205q-205 0 -205 205z" />
<glyph unicode="&#x442;" horiz-adv-x="477" d="M20 1622v137h435v-137h-138v-1622h-157v1622h-140z" />
<glyph unicode="&#x443;" horiz-adv-x="546" d="M61 180v467h162v-473q0 -33 13.5 -49t35.5 -16q49 0 50 65v598q-23 -25 -53.5 -37t-59.5 -12q-66 0 -107 44t-41 107v885h162v-831q0 -31 13.5 -46.5t29.5 -15.5q25 0 40.5 15.5t15.5 46.5v831h159v-1579q0 -205 -215 -205q-205 0 -205 205z" />
<glyph unicode="&#x444;" horiz-adv-x="796" d="M63 526v832q0 193 226 192h30v209h158v-209h33q223 0 223 -192v-832q0 -109 -55 -151.5t-199 -42.5v-332h-162v332q-143 0 -198.5 43t-55.5 151zM223 526q0 -70 60 -69h34v973h-34q-59 0 -60 -72v-832zM479 457h35q59 0 59 69v832q0 72 -59 72h-35v-973z" />
<glyph unicode="&#x445;" horiz-adv-x="557" d="M29 0l170 918l-164 841h190l62 -469l73 469h154l-162 -813l174 -946h-172l-94 614l-100 -614h-131z" />
<glyph unicode="&#x446;" d="M63 0v1759h158v-1612h90v1612h158v-1601h102v-348h-143v190h-365z" />
<glyph unicode="&#x447;" horiz-adv-x="546" d="M61 874v885h170v-831q0 -61 35 -62q47 0 47 62v831h168v-1759h-168v772q-49 -49 -104 -49q-66 0 -107 44t-41 107z" />
<glyph unicode="&#x448;" horiz-adv-x="780" d="M63 0v1759h158v-1612h90v1612h158v-1612h90v1612h156v-1759h-652z" />
<glyph unicode="&#x449;" horiz-adv-x="780" d="M63 0v1759h158v-1612h90v1612h158v-1612h90v1612h156v-1601h104v-348h-145v190h-611z" />
<glyph unicode="&#x44a;" horiz-adv-x="495" d="M-33 1645v114h254v-753q143 0 198.5 -45.5t55.5 -151.5v-616q0 -193 -223 -193h-189v1645h-96zM221 123h35q57 0 57 70v616q0 70 -57 70h-35v-756z" />
<glyph unicode="&#x44b;" horiz-adv-x="759" d="M63 0v1759h158v-753q143 0 198.5 -45.5t55.5 -151.5v-616q0 -193 -223 -193h-189zM221 123h35q57 0 57 70v616q0 70 -57 70h-35v-756zM539 0v1759h157v-1759h-157z" />
<glyph unicode="&#x44c;" horiz-adv-x="495" d="M63 0v1759h158v-753q143 0 198.5 -45.5t55.5 -151.5v-616q0 -193 -223 -193h-189zM221 123h35q57 0 57 70v616q0 70 -57 70h-35v-756z" />
<glyph unicode="&#x44d;" horiz-adv-x="532" d="M61 180v572h158v-578q0 -66 45 -65q45 0 45 65v655h-90v138h90v626q0 63 -45 64q-45 0 -45 -64v-549h-158v537q0 205 203 205q205 0 205 -205v-1401q0 -205 -205 -205q-203 0 -203 205z" />
<glyph unicode="&#x44e;" horiz-adv-x="782" d="M63 0v1759h158v-825h86v647q0 205 205 205t205 -205v-1401q0 -205 -205 -205t-205 205v606h-86v-786h-158zM467 170q0 -61 45 -61q47 0 47 63v1427q0 59 -47 60q-45 0 -45 -60v-1429z" />
<glyph unicode="&#x44f;" d="M41 0q27 59 27 193v573q0 139 155 152q-156 31 -155 182v467q0 193 223 192h186v-1759h-158v852q-92 0 -92 -66v-587q0 -152 -20 -199h-166zM227 1055q0 -72 60 -72h32v653h-32q-59 0 -60 -67v-514z" />
<glyph unicode="&#x451;" horiz-adv-x="542" d="M61 162v1450q0 84 52.5 129t156.5 45q98 0 153.5 -43t55.5 -115v-805h-258v-684q0 -43 51 -43q47 0 47 43v609h160v-609q0 -78 -56 -121t-151 -43q-211 0 -211 187zM86 1878v168h143v-168h-143zM221 932h98v694q0 45 -47 45q-51 0 -51 -45v-694zM317 1878v168h141v-168 h-141z" />
<glyph unicode="&#x453;" horiz-adv-x="415" d="M63 0v1759h345v-143h-187v-1616h-158zM137 1849l52 248h176l-99 -248h-129z" />
<glyph unicode="&#x454;" horiz-adv-x="532" d="M61 180v1401q0 205 205 205q203 0 203 -205v-537h-158v549q0 63 -45 64q-45 0 -45 -64v-626h90v-138h-90v-655q0 -66 45 -65q45 0 45 65v578h158v-572q0 -205 -203 -205q-205 0 -205 205z" />
<glyph unicode="&#x455;" horiz-adv-x="524" d="M55 180v371h160v-377q0 -66 45 -65q47 0 47 65v150q0 49 -4 102t-24 137q-39 166 -90.5 312.5t-90.5 308.5q-29 111 -36 183.5t-7 131.5v82q0 205 205 205t205 -205v-340h-158v352q0 66 -47 66q-45 0 -45 -53v-115q0 -41 4 -97.5t27 -148.5q20 -84 45.5 -164t51.5 -158.5 t49.5 -158.5t41.5 -164q31 -147 31 -281v-139q0 -205 -205 -205t-205 205z" />
<glyph unicode="&#x456;" horiz-adv-x="292" d="M63 0v1759h158v-1759h-158z" />
<glyph unicode="&#x457;" horiz-adv-x="292" d="M-38 1878v168h143v-168h-143zM63 0v1759h158v-1759h-158zM193 1878v168h141v-168h-141z" />
<glyph unicode="&#x458;" horiz-adv-x="288" d="M12 0v119h19q49 0 49 47v1593h139v-1603q0 -86 -28.5 -121t-110.5 -35h-68z" />
<glyph unicode="&#x459;" horiz-adv-x="763" d="M14 0v133q49 0 49 66v1560h406v-753q143 0 197.5 -45.5t54.5 -151.5v-616q0 -193 -223 -193h-187v1612h-90v-1407q0 -205 -207 -205zM469 123h33q59 0 59 70v616q0 70 -59 70h-33v-756z" />
<glyph unicode="&#x45c;" horiz-adv-x="530" d="M63 0v1759h162v-827l121 827h164l-148 -841l144 -918h-168l-113 874v-874h-162zM206 1849l52 248h176l-99 -248h-129z" />
<glyph unicode="&#x490;" horiz-adv-x="415" d="M63 0v1759h201v205h144v-348h-187v-1616h-158z" />
<glyph unicode="&#x491;" horiz-adv-x="415" d="M63 0v1759h201v205h144v-348h-187v-1616h-158z" />
<glyph unicode="&#x1e80;" horiz-adv-x="901" d="M33 1759h166l53 -1526l102 1526h209l103 -1526l53 1526h158l-97 -1759h-229l-96 1407l-93 -1407h-227zM270 2097h176l52 -248h-125z" />
<glyph unicode="&#x1e81;" horiz-adv-x="901" d="M33 1759h166l53 -1526l102 1526h209l103 -1526l53 1526h158l-97 -1759h-229l-96 1407l-93 -1407h-227zM270 2097h176l52 -248h-125z" />
<glyph unicode="&#x1e82;" horiz-adv-x="901" d="M33 1759h166l53 -1526l102 1526h209l103 -1526l53 1526h158l-97 -1759h-229l-96 1407l-93 -1407h-227zM399 1849l52 248h176l-99 -248h-129z" />
<glyph unicode="&#x1e83;" horiz-adv-x="901" d="M33 1759h166l53 -1526l102 1526h209l103 -1526l53 1526h158l-97 -1759h-229l-96 1407l-93 -1407h-227zM399 1849l52 248h176l-99 -248h-129z" />
<glyph unicode="&#x1e84;" horiz-adv-x="901" d="M33 1759h166l53 -1526l102 1526h209l103 -1526l53 1526h158l-97 -1759h-229l-96 1407l-93 -1407h-227zM265 1878v168h143v-168h-143zM496 1878v168h141v-168h-141z" />
<glyph unicode="&#x1e85;" horiz-adv-x="901" d="M33 1759h166l53 -1526l102 1526h209l103 -1526l53 1526h158l-97 -1759h-229l-96 1407l-93 -1407h-227zM265 1878v168h143v-168h-143zM496 1878v168h141v-168h-141z" />
<glyph unicode="&#x1ef2;" horiz-adv-x="546" d="M61 180v467h162v-473q0 -33 13.5 -49t35.5 -16q49 0 50 65v598q-23 -25 -53.5 -37t-59.5 -12q-66 0 -107 44t-41 107v885h162v-831q0 -31 13.5 -46.5t29.5 -15.5q25 0 40.5 15.5t15.5 46.5v831h159v-1579q0 -205 -215 -205q-205 0 -205 205zM98 2097h176l52 -248h-125z " />
<glyph unicode="&#x1ef3;" horiz-adv-x="546" d="M61 180v467h162v-473q0 -33 13.5 -49t35.5 -16q49 0 50 65v598q-23 -25 -53.5 -37t-59.5 -12q-66 0 -107 44t-41 107v885h162v-831q0 -31 13.5 -46.5t29.5 -15.5q25 0 40.5 15.5t15.5 46.5v831h159v-1579q0 -205 -215 -205q-205 0 -205 205zM98 2097h176l52 -248h-125z " />
<glyph unicode="&#x2000;" horiz-adv-x="1048" />
<glyph unicode="&#x2001;" horiz-adv-x="2097" />
<glyph unicode="&#x2002;" horiz-adv-x="1048" />
<glyph unicode="&#x2003;" horiz-adv-x="2097" />
<glyph unicode="&#x2004;" horiz-adv-x="699" />
<glyph unicode="&#x2005;" horiz-adv-x="524" />
<glyph unicode="&#x2006;" horiz-adv-x="349" />
<glyph unicode="&#x2007;" horiz-adv-x="349" />
<glyph unicode="&#x2008;" horiz-adv-x="262" />
<glyph unicode="&#x2009;" horiz-adv-x="419" />
<glyph unicode="&#x200a;" horiz-adv-x="116" />
<glyph unicode="&#x2010;" horiz-adv-x="319" d="M31 786v115h260v-115h-260z" />
<glyph unicode="&#x2011;" horiz-adv-x="319" d="M31 786v115h260v-115h-260z" />
<glyph unicode="&#x2012;" horiz-adv-x="319" d="M31 786v115h260v-115h-260z" />
<glyph unicode="&#x2013;" horiz-adv-x="673" d="M31 786v115h614v-115h-614z" />
<glyph unicode="&#x2014;" horiz-adv-x="1183" d="M31 786v115h1122v-115h-1122z" />
<glyph unicode="&#x2018;" horiz-adv-x="256" d="M63 1360v399h119v-399h-119z" />
<glyph unicode="&#x2019;" horiz-adv-x="256" d="M63 1360v399h119v-399h-119z" />
<glyph unicode="&#x201a;" horiz-adv-x="303" d="M41 -188l49 348h148l-107 -348h-90z" />
<glyph unicode="&#x201c;" horiz-adv-x="468" d="M63 1352v403h119v-403h-119zM287 1352v403h116v-403h-116z" />
<glyph unicode="&#x201d;" horiz-adv-x="468" d="M63 1352v403h119v-403h-119zM287 1352v403h116v-403h-116z" />
<glyph unicode="&#x201e;" horiz-adv-x="690" d="M41 -188l49 348h148l-107 -348h-90zM420 -188l49 348h148l-107 -348h-90z" />
<glyph unicode="&#x2020;" horiz-adv-x="649" d="M37 1194v121h221v444h123v-444h223v-121h-223v-1194h-123v1194h-221z" />
<glyph unicode="&#x2021;" horiz-adv-x="649" d="M37 444v121h221v629h-221v121h221v444h123v-444h223v-121h-223v-629h223v-121h-223v-444h-123v444h-221z" />
<glyph unicode="&#x2022;" horiz-adv-x="516" d="M47 870q0 90 61.5 150.5t151.5 60.5t151.5 -60t61.5 -151q0 -45 -17.5 -85t-46 -68.5t-67.5 -46t-84 -17.5t-83 17.5t-66.5 46t-45 68.5t-16.5 85z" />
<glyph unicode="&#x2026;" horiz-adv-x="890" d="M63 0v168h144v-168h-144zM360 0v168h144v-168h-144zM659 0v168h144v-168h-144z" />
<glyph unicode="&#x202f;" horiz-adv-x="419" />
<glyph unicode="&#x2030;" horiz-adv-x="888" d="M61 1026v637q0 123 107 123q106 0 106 -123v-637q0 -121 -106 -121t-107 121zM119 0l311 1759h84l-313 -1759h-82zM145 1022q0 -37 23 -37q25 0 25 37v651q0 35 -25 35q-23 0 -23 -35v-651zM354 98v637q0 123 105 123q109 0 108 -123v-637q0 -123 -108 -123 q-104 0 -105 123zM438 94q0 -37 21 -37q27 0 26 37v651q0 35 -26 35q-20 0 -21 -35v-651zM614 98v637q0 123 105 123q109 0 108 -123v-637q0 -123 -108 -123q-104 0 -105 123zM698 94q0 -37 21 -37q27 0 26 37v651q0 35 -26 35q-20 0 -21 -35v-651z" />
<glyph unicode="&#x2039;" horiz-adv-x="272" d="M31 791v145l213 151v-118l-121 -107l121 -106v-117z" />
<glyph unicode="&#x203a;" horiz-adv-x="272" d="M31 639v117l119 106l-119 107v118l213 -151v-145z" />
<glyph unicode="&#x2044;" horiz-adv-x="169" d="M-143 0l362 1759h96l-362 -1759h-96z" />
<glyph unicode="&#x205f;" horiz-adv-x="524" />
<glyph unicode="&#x20ac;" horiz-adv-x="593" d="M33 651v119h90v176h-90v119h90v516q0 205 203 205q72 0 127 -8.5t98 -24.5l-25 -156q-4 59 -200 60q-43 0 -43 -64v-528h159l-18 -119h-141v-176h110l-18 -119h-92v-477q0 -66 43 -65q49 0 49 65v318h155v-312q0 -205 -204 -205q-203 0 -203 205v471h-90z" />
<glyph unicode="&#x20b9;" d="M29 1272v123h247v174q0 61 -49 67h-198v123h479v-123h-78q4 -16 6 -33.5t2 -35.5v-172h70v-123h-70v-172q0 -152 -157 -182q158 -12 157 -152v-573q0 -139 27 -193h-166q-23 45 -23 199v587q0 63 -86 66v131h29q57 0 57 72v217h-247z" />
<glyph unicode="&#x2122;" horiz-adv-x="608" d="M18 1696v63h236v-63h-82v-260h-70v260h-84zM283 1436v323h77l64 -168l59 168h78v-323h-67v180l-68 -182l-80 188v-186h-63z" />
<glyph unicode="&#x2202;" horiz-adv-x="585" d="M18 121q0 12 2.5 27.5t6.5 31.5l92 625q10 66 45 109.5t84 43.5q51 0 88 -49l102 686q2 10 2 25q0 41 -30 41q-35 0 -45 -66l-82 -538h-127l77 524q16 102 63.5 153.5t133.5 51.5q135 0 135 -146q0 -12 -1 -27.5t-3 -31.5l-211 -1401q-35 -205 -192 -205q-139 0 -140 146 zM147 145q0 -37 31 -36q35 0 45 61l90 592q0 6 1 12t1 10q0 39 -32 39q-31 0 -45 -61l-88 -592q-2 -6 -2.5 -13t-0.5 -12z" />
<glyph unicode="&#x220f;" horiz-adv-x="714" d="M98 -262v2214h516v-2214h-129v2097h-258v-2097h-129z" />
<glyph unicode="&#x2211;" horiz-adv-x="563" d="M33 -43l254 922l-254 927v90h495v-110h-366l241 -895l-243 -916h368v-108h-495v90z" />
<glyph unicode="&#x221a;" horiz-adv-x="989" d="M16 764v121h217l213 -717l396 1591h129l-459 -1759h-125l-246 764h-125z" />
<glyph unicode="&#x221e;" horiz-adv-x="884" d="M37 885q0 207 174 207h90q111 0 141 -121q33 121 142 121h90q174 0 174 -207q0 -209 -174 -209h-94q-117 0 -138 131q-20 -131 -137 -131h-94q-174 0 -174 209zM150 885q0 -47 55 -47h121q55 0 55 47q0 45 -53 45h-127q-51 0 -51 -45zM506 885q0 -47 53 -47h123 q53 0 53 47q0 45 -49 45h-129q-51 0 -51 -45z" />
<glyph unicode="&#x222b;" horiz-adv-x="561" d="M63 -25q63 0 102.5 40t39.5 137v1435q0 92 13 152.5t45 98.5t88.5 54.5t142.5 18.5v-125q-63 0 -101.5 -40t-38.5 -138v-1436q0 -92 -13 -152.5t-46 -97.5t-89 -53t-143 -19v125z" />
<glyph unicode="&#x2248;" horiz-adv-x="743" d="M49 526q4 123 51 180.5t140 57.5q51 0 118 -25q31 -12 62 -27.5t58.5 -27.5t51 -21.5t39.5 -9.5q35 0 44.5 21.5t13.5 89.5h67q0 -115 -52 -177.5t-136 -62.5q-20 0 -49 4t-60 15q-31 12 -61.5 28.5t-60 30.5t-55 23.5t-44.5 9.5q-33 0 -44 -23.5t-11 -85.5h-72zM49 1040 q4 123 51 180.5t140 57.5q51 0 118 -25q31 -12 62 -27.5t58.5 -27.5t51 -21.5t39.5 -9.5q35 0 44.5 21.5t13.5 89.5h67q0 -115 -52 -177.5t-136 -62.5q-20 0 -49 4t-60 15q-31 12 -61.5 28.5t-60 30.5t-55 23.5t-44.5 9.5q-33 0 -44 -23.5t-11 -85.5h-72z" />
<glyph unicode="&#x2260;" horiz-adv-x="649" d="M37 643v119h217l41 125h-258v121h297l76 235h104l-78 -235h168v-121h-207l-41 -125h248v-119h-289l-79 -246h-101l80 246h-178z" />
<glyph unicode="&#x2264;" horiz-adv-x="696" d="M31 762v115l624 260v-133l-448 -183l448 -186v-127zM51 121v121h567v-121h-567z" />
<glyph unicode="&#x2265;" horiz-adv-x="696" d="M31 508v127l448 186l-448 183v133l624 -260v-115zM51 121v121h567v-121h-567z" />
<glyph unicode="&#x25ca;" horiz-adv-x="653" d="M31 870l241 707h107l244 -707l-244 -706h-107zM127 870l197 -587l198 587l-198 586z" />
<glyph unicode="&#x25fc;" horiz-adv-x="1761" d="M0 0v1761h1761v-1761h-1761z" />
</font>
</defs>
</svg>
